solid OpenSCAD_Model
  facet normal 0.998027 0.0627908 0
    outer loop
      vertex 12.9 0 10
      vertex 12.7983 1.6168 0
      vertex 12.7983 1.6168 10
    endloop
  endfacet
  facet normal 0.998027 0.0627908 0
    outer loop
      vertex 12.7983 1.6168 0
      vertex 12.9 0 10
      vertex 12.9 0 0
    endloop
  endfacet
  facet normal -0.998027 0.0627908 0
    outer loop
      vertex -12.9 0 0
      vertex -12.7983 1.6168 10
      vertex -12.7983 1.6168 0
    endloop
  endfacet
  facet normal -0.998027 0.0627908 0
    outer loop
      vertex -12.7983 1.6168 10
      vertex -12.9 0 0
      vertex -12.9 0 10
    endloop
  endfacet
  facet normal 0 1 -0
    outer loop
      vertex 0.809998 12.8745 0
      vertex -0.809998 12.8745 10
      vertex 0.809998 12.8745 10
    endloop
  endfacet
  facet normal 0 1 0
    outer loop
      vertex -0.809998 12.8745 10
      vertex 0.809998 12.8745 0
      vertex -0.809998 12.8745 0
    endloop
  endfacet
  facet normal 0 -1 0
    outer loop
      vertex -0.809998 -12.8745 0
      vertex 0.809998 -12.8745 10
      vertex -0.809998 -12.8745 10
    endloop
  endfacet
  facet normal 0 -1 -0
    outer loop
      vertex 0.809998 -12.8745 10
      vertex -0.809998 -12.8745 0
      vertex 0.809998 -12.8745 0
    endloop
  endfacet
  facet normal 0.684547 -0.728969 0
    outer loop
      vertex 8.22277 -9.93962 0
      vertex 9.4037 -8.83066 10
      vertex 8.22277 -9.93962 10
    endloop
  endfacet
  facet normal 0.684547 -0.728969 0
    outer loop
      vertex 9.4037 -8.83066 10
      vertex 8.22277 -9.93962 0
      vertex 9.4037 -8.83066 0
    endloop
  endfacet
  facet normal 0.684547 0.728969 -0
    outer loop
      vertex 9.4037 8.83066 0
      vertex 8.22277 9.93962 10
      vertex 9.4037 8.83066 10
    endloop
  endfacet
  facet normal 0.684547 0.728969 0
    outer loop
      vertex 8.22277 9.93962 10
      vertex 9.4037 8.83066 0
      vertex 8.22277 9.93962 0
    endloop
  endfacet
  facet normal -0.684547 0.728969 0
    outer loop
      vertex -8.22277 9.93962 0
      vertex -9.4037 8.83066 10
      vertex -8.22277 9.93962 10
    endloop
  endfacet
  facet normal -0.684547 0.728969 0
    outer loop
      vertex -9.4037 8.83066 10
      vertex -8.22277 9.93962 0
      vertex -9.4037 8.83066 0
    endloop
  endfacet
  facet normal -0.368124 0.929777 0
    outer loop
      vertex -3.98632 12.2686 0
      vertex -5.49255 11.6723 10
      vertex -3.98632 12.2686 10
    endloop
  endfacet
  facet normal -0.368124 0.929777 0
    outer loop
      vertex -5.49255 11.6723 10
      vertex -3.98632 12.2686 0
      vertex -5.49255 11.6723 0
    endloop
  endfacet
  facet normal 0.904827 0.425779 0
    outer loop
      vertex 11.9941 4.74881 10
      vertex 11.3044 6.21462 0
      vertex 11.3044 6.21462 10
    endloop
  endfacet
  facet normal 0.904827 0.425779 0
    outer loop
      vertex 11.3044 6.21462 0
      vertex 11.9941 4.74881 10
      vertex 11.9941 4.74881 0
    endloop
  endfacet
  facet normal 0.982287 0.187381 0
    outer loop
      vertex 12.7983 1.6168 10
      vertex 12.4947 3.2081 0
      vertex 12.4947 3.2081 10
    endloop
  endfacet
  facet normal 0.982287 0.187381 0
    outer loop
      vertex 12.4947 3.2081 0
      vertex 12.7983 1.6168 10
      vertex 12.7983 1.6168 0
    endloop
  endfacet
  facet normal 0.368124 0.929777 -0
    outer loop
      vertex 5.49255 11.6723 0
      vertex 3.98632 12.2686 10
      vertex 5.49255 11.6723 10
    endloop
  endfacet
  facet normal 0.368124 0.929777 0
    outer loop
      vertex 3.98632 12.2686 10
      vertex 5.49255 11.6723 0
      vertex 3.98632 12.2686 0
    endloop
  endfacet
  facet normal 0.24869 0.968583 -0
    outer loop
      vertex 3.98632 12.2686 0
      vertex 2.41722 12.6715 10
      vertex 3.98632 12.2686 10
    endloop
  endfacet
  facet normal 0.24869 0.968583 0
    outer loop
      vertex 2.41722 12.6715 10
      vertex 3.98632 12.2686 0
      vertex 2.41722 12.6715 0
    endloop
  endfacet
  facet normal 0.481754 0.876307 -0
    outer loop
      vertex 6.91217 10.8918 0
      vertex 5.49255 11.6723 10
      vertex 6.91217 10.8918 10
    endloop
  endfacet
  facet normal 0.481754 0.876307 0
    outer loop
      vertex 5.49255 11.6723 10
      vertex 6.91217 10.8918 0
      vertex 5.49255 11.6723 0
    endloop
  endfacet
  facet normal -0.904827 0.425779 0
    outer loop
      vertex -11.9941 4.74881 0
      vertex -11.3044 6.21462 10
      vertex -11.3044 6.21462 0
    endloop
  endfacet
  facet normal -0.904827 0.425779 0
    outer loop
      vertex -11.3044 6.21462 10
      vertex -11.9941 4.74881 0
      vertex -11.9941 4.74881 10
    endloop
  endfacet
  facet normal -0.951056 0.309017 0
    outer loop
      vertex -12.4947 3.2081 0
      vertex -11.9941 4.74881 10
      vertex -11.9941 4.74881 0
    endloop
  endfacet
  facet normal -0.951056 0.309017 0
    outer loop
      vertex -11.9941 4.74881 10
      vertex -12.4947 3.2081 0
      vertex -12.4947 3.2081 10
    endloop
  endfacet
  facet normal -0.481754 0.876307 0
    outer loop
      vertex -5.49255 11.6723 0
      vertex -6.91217 10.8918 10
      vertex -5.49255 11.6723 10
    endloop
  endfacet
  facet normal -0.481754 0.876307 0
    outer loop
      vertex -6.91217 10.8918 10
      vertex -5.49255 11.6723 0
      vertex -6.91217 10.8918 0
    endloop
  endfacet
  facet normal -0.125333 0.992115 0
    outer loop
      vertex -0.809998 12.8745 0
      vertex -2.41722 12.6715 10
      vertex -0.809998 12.8745 10
    endloop
  endfacet
  facet normal -0.125333 0.992115 0
    outer loop
      vertex -2.41722 12.6715 10
      vertex -0.809998 12.8745 0
      vertex -2.41722 12.6715 0
    endloop
  endfacet
  facet normal 0.125333 -0.992115 0
    outer loop
      vertex 0.809998 -12.8745 0
      vertex 2.41722 -12.6715 10
      vertex 0.809998 -12.8745 10
    endloop
  endfacet
  facet normal 0.125333 -0.992115 0
    outer loop
      vertex 2.41722 -12.6715 10
      vertex 0.809998 -12.8745 0
      vertex 2.41722 -12.6715 0
    endloop
  endfacet
  facet normal 0.368124 -0.929777 0
    outer loop
      vertex 3.98632 -12.2686 0
      vertex 5.49255 -11.6723 10
      vertex 3.98632 -12.2686 10
    endloop
  endfacet
  facet normal 0.368124 -0.929777 0
    outer loop
      vertex 5.49255 -11.6723 10
      vertex 3.98632 -12.2686 0
      vertex 5.49255 -11.6723 0
    endloop
  endfacet
  facet normal 0.951056 0.309017 0
    outer loop
      vertex 12.4947 3.2081 10
      vertex 11.9941 4.74881 0
      vertex 11.9941 4.74881 10
    endloop
  endfacet
  facet normal 0.951056 0.309017 0
    outer loop
      vertex 11.9941 4.74881 0
      vertex 12.4947 3.2081 10
      vertex 12.4947 3.2081 0
    endloop
  endfacet
  facet normal 0.770513 0.637424 0
    outer loop
      vertex 10.4363 7.58243 10
      vertex 9.4037 8.83066 0
      vertex 9.4037 8.83066 10
    endloop
  endfacet
  facet normal 0.770513 0.637424 0
    outer loop
      vertex 9.4037 8.83066 0
      vertex 10.4363 7.58243 10
      vertex 10.4363 7.58243 0
    endloop
  endfacet
  facet normal 0.844328 0.535827 0
    outer loop
      vertex 11.3044 6.21462 10
      vertex 10.4363 7.58243 0
      vertex 10.4363 7.58243 10
    endloop
  endfacet
  facet normal 0.844328 0.535827 0
    outer loop
      vertex 10.4363 7.58243 0
      vertex 11.3044 6.21462 10
      vertex 11.3044 6.21462 0
    endloop
  endfacet
  facet normal 0.125333 0.992115 -0
    outer loop
      vertex 2.41722 12.6715 0
      vertex 0.809998 12.8745 10
      vertex 2.41722 12.6715 10
    endloop
  endfacet
  facet normal 0.125333 0.992115 0
    outer loop
      vertex 0.809998 12.8745 10
      vertex 2.41722 12.6715 0
      vertex 0.809998 12.8745 0
    endloop
  endfacet
  facet normal 0.587785 0.809017 -0
    outer loop
      vertex 8.22277 9.93962 0
      vertex 6.91217 10.8918 10
      vertex 8.22277 9.93962 10
    endloop
  endfacet
  facet normal 0.587785 0.809017 0
    outer loop
      vertex 6.91217 10.8918 10
      vertex 8.22277 9.93962 0
      vertex 6.91217 10.8918 0
    endloop
  endfacet
  facet normal -0.844328 0.535827 0
    outer loop
      vertex -11.3044 6.21462 0
      vertex -10.4363 7.58243 10
      vertex -10.4363 7.58243 0
    endloop
  endfacet
  facet normal -0.844328 0.535827 0
    outer loop
      vertex -10.4363 7.58243 10
      vertex -11.3044 6.21462 0
      vertex -11.3044 6.21462 10
    endloop
  endfacet
  facet normal -0.770513 0.637424 0
    outer loop
      vertex -10.4363 7.58243 0
      vertex -9.4037 8.83066 10
      vertex -9.4037 8.83066 0
    endloop
  endfacet
  facet normal -0.770513 0.637424 0
    outer loop
      vertex -9.4037 8.83066 10
      vertex -10.4363 7.58243 0
      vertex -10.4363 7.58243 10
    endloop
  endfacet
  facet normal -0.982287 0.187381 0
    outer loop
      vertex -12.7983 1.6168 0
      vertex -12.4947 3.2081 10
      vertex -12.4947 3.2081 0
    endloop
  endfacet
  facet normal -0.982287 0.187381 0
    outer loop
      vertex -12.4947 3.2081 10
      vertex -12.7983 1.6168 0
      vertex -12.7983 1.6168 10
    endloop
  endfacet
  facet normal 0 0 1
    outer loop
      vertex 10 0 10
      vertex 12.9 0 10
      vertex 12.7983 1.6168 10
    endloop
  endfacet
  facet normal 0 0 1
    outer loop
      vertex 9.92115 1.25333 10
      vertex 12.7983 1.6168 10
      vertex 12.4947 3.2081 10
    endloop
  endfacet
  facet normal 0 0 1
    outer loop
      vertex 12.9 0 10
      vertex 10 0 10
      vertex 12.7983 -1.6168 10
    endloop
  endfacet
  facet normal 0 0 1
    outer loop
      vertex 9.68583 2.4869 10
      vertex 12.4947 3.2081 10
      vertex 11.9941 4.74881 10
    endloop
  endfacet
  facet normal -0 0 1
    outer loop
      vertex 9.92115 -1.25333 10
      vertex 12.7983 -1.6168 10
      vertex 10 0 10
    endloop
  endfacet
  facet normal 0 0 1
    outer loop
      vertex 9.29776 3.68124 10
      vertex 11.9941 4.74881 10
      vertex 11.3044 6.21462 10
    endloop
  endfacet
  facet normal 0 0 1
    outer loop
      vertex 12.7983 -1.6168 10
      vertex 9.92115 -1.25333 10
      vertex 12.4947 -3.2081 10
    endloop
  endfacet
  facet normal 0 0 1
    outer loop
      vertex 8.76307 4.81754 10
      vertex 11.3044 6.21462 10
      vertex 10.4363 7.58243 10
    endloop
  endfacet
  facet normal -0 0 1
    outer loop
      vertex 9.68583 -2.4869 10
      vertex 12.4947 -3.2081 10
      vertex 9.92115 -1.25333 10
    endloop
  endfacet
  facet normal 0 0 1
    outer loop
      vertex 12.4947 -3.2081 10
      vertex 9.68583 -2.4869 10
      vertex 11.9941 -4.74881 10
    endloop
  endfacet
  facet normal 0 0 1
    outer loop
      vertex 12.7983 1.6168 10
      vertex 9.92115 1.25333 10
      vertex 10 0 10
    endloop
  endfacet
  facet normal 0 0 1
    outer loop
      vertex 12.4947 3.2081 10
      vertex 9.68583 2.4869 10
      vertex 9.92115 1.25333 10
    endloop
  endfacet
  facet normal 0 0 1
    outer loop
      vertex 8.09017 5.87785 10
      vertex 10.4363 7.58243 10
      vertex 9.4037 8.83066 10
    endloop
  endfacet
  facet normal 0 0 1
    outer loop
      vertex 11.9941 4.74881 10
      vertex 9.29776 3.68124 10
      vertex 9.68583 2.4869 10
    endloop
  endfacet
  facet normal 0 0 1
    outer loop
      vertex 11.3044 6.21462 10
      vertex 8.76307 4.81754 10
      vertex 9.29776 3.68124 10
    endloop
  endfacet
  facet normal 0 0 1
    outer loop
      vertex 7.28969 6.84547 10
      vertex 9.4037 8.83066 10
      vertex 8.22277 9.93962 10
    endloop
  endfacet
  facet normal 0 0 1
    outer loop
      vertex 10.4363 7.58243 10
      vertex 8.09017 5.87785 10
      vertex 8.76307 4.81754 10
    endloop
  endfacet
  facet normal 0 0 1
    outer loop
      vertex 9.4037 8.83066 10
      vertex 7.28969 6.84547 10
      vertex 8.09017 5.87785 10
    endloop
  endfacet
  facet normal 0 0 1
    outer loop
      vertex 6.37424 7.70513 10
      vertex 8.22277 9.93962 10
      vertex 6.91217 10.8918 10
    endloop
  endfacet
  facet normal 0 0 1
    outer loop
      vertex 8.22277 9.93962 10
      vertex 6.37424 7.70513 10
      vertex 7.28969 6.84547 10
    endloop
  endfacet
  facet normal 0 0 1
    outer loop
      vertex 5.35827 8.44328 10
      vertex 6.91217 10.8918 10
      vertex 5.49255 11.6723 10
    endloop
  endfacet
  facet normal 0 0 1
    outer loop
      vertex 6.91217 10.8918 10
      vertex 5.35827 8.44328 10
      vertex 6.37424 7.70513 10
    endloop
  endfacet
  facet normal 0 0 1
    outer loop
      vertex 5.49255 11.6723 10
      vertex 4.25779 9.04827 10
      vertex 5.35827 8.44328 10
    endloop
  endfacet
  facet normal 0 0 1
    outer loop
      vertex 3.98632 12.2686 10
      vertex 4.25779 9.04827 10
      vertex 5.49255 11.6723 10
    endloop
  endfacet
  facet normal 0 0 1
    outer loop
      vertex 3.98632 12.2686 10
      vertex 3.09017 9.51056 10
      vertex 4.25779 9.04827 10
    endloop
  endfacet
  facet normal 0 0 1
    outer loop
      vertex 2.41722 12.6715 10
      vertex 3.09017 9.51056 10
      vertex 3.98632 12.2686 10
    endloop
  endfacet
  facet normal 0 0 1
    outer loop
      vertex 2.41722 12.6715 10
      vertex 1.87381 9.82287 10
      vertex 3.09017 9.51056 10
    endloop
  endfacet
  facet normal 0 0 1
    outer loop
      vertex 0.809998 12.8745 10
      vertex 1.87381 9.82287 10
      vertex 2.41722 12.6715 10
    endloop
  endfacet
  facet normal 0 0 1
    outer loop
      vertex 0.809998 12.8745 10
      vertex 0.627905 9.98027 10
      vertex 1.87381 9.82287 10
    endloop
  endfacet
  facet normal 0 0 1
    outer loop
      vertex 0.809998 12.8745 10
      vertex -0.627905 9.98027 10
      vertex 0.627905 9.98027 10
    endloop
  endfacet
  facet normal -0 0 1
    outer loop
      vertex -0.809998 12.8745 10
      vertex -0.627905 9.98027 10
      vertex 0.809998 12.8745 10
    endloop
  endfacet
  facet normal 0 0 1
    outer loop
      vertex -0.809998 12.8745 10
      vertex -1.87381 9.82287 10
      vertex -0.627905 9.98027 10
    endloop
  endfacet
  facet normal -0 0 1
    outer loop
      vertex -2.41722 12.6715 10
      vertex -1.87381 9.82287 10
      vertex -0.809998 12.8745 10
    endloop
  endfacet
  facet normal 0 0 1
    outer loop
      vertex -2.41722 12.6715 10
      vertex -3.09017 9.51056 10
      vertex -1.87381 9.82287 10
    endloop
  endfacet
  facet normal -0 0 1
    outer loop
      vertex -3.98632 12.2686 10
      vertex -3.09017 9.51056 10
      vertex -2.41722 12.6715 10
    endloop
  endfacet
  facet normal 0 0 1
    outer loop
      vertex -3.98632 12.2686 10
      vertex -4.25779 9.04827 10
      vertex -3.09017 9.51056 10
    endloop
  endfacet
  facet normal -0 0 1
    outer loop
      vertex -5.49255 11.6723 10
      vertex -4.25779 9.04827 10
      vertex -3.98632 12.2686 10
    endloop
  endfacet
  facet normal 0 0 1
    outer loop
      vertex -4.25779 9.04827 10
      vertex -5.49255 11.6723 10
      vertex -5.35827 8.44328 10
    endloop
  endfacet
  facet normal -0 0 1
    outer loop
      vertex -6.91217 10.8918 10
      vertex -5.35827 8.44328 10
      vertex -5.49255 11.6723 10
    endloop
  endfacet
  facet normal 0 0 1
    outer loop
      vertex -5.35827 8.44328 10
      vertex -6.91217 10.8918 10
      vertex -6.37424 7.70513 10
    endloop
  endfacet
  facet normal -0 0 1
    outer loop
      vertex -8.22277 9.93962 10
      vertex -6.37424 7.70513 10
      vertex -6.91217 10.8918 10
    endloop
  endfacet
  facet normal 0 0 1
    outer loop
      vertex -6.37424 7.70513 10
      vertex -8.22277 9.93962 10
      vertex -7.28969 6.84547 10
    endloop
  endfacet
  facet normal -0 0 1
    outer loop
      vertex -9.4037 8.83066 10
      vertex -7.28969 6.84547 10
      vertex -8.22277 9.93962 10
    endloop
  endfacet
  facet normal 0 0 1
    outer loop
      vertex -7.28969 6.84547 10
      vertex -9.4037 8.83066 10
      vertex -8.09017 5.87785 10
    endloop
  endfacet
  facet normal -0 0 1
    outer loop
      vertex -10.4363 7.58243 10
      vertex -8.09017 5.87785 10
      vertex -9.4037 8.83066 10
    endloop
  endfacet
  facet normal 0 0 1
    outer loop
      vertex -8.09017 5.87785 10
      vertex -10.4363 7.58243 10
      vertex -8.76307 4.81754 10
    endloop
  endfacet
  facet normal -0 0 1
    outer loop
      vertex -11.3044 6.21462 10
      vertex -8.76307 4.81754 10
      vertex -10.4363 7.58243 10
    endloop
  endfacet
  facet normal 0 0 1
    outer loop
      vertex -8.76307 4.81754 10
      vertex -11.3044 6.21462 10
      vertex -9.29776 3.68124 10
    endloop
  endfacet
  facet normal 0 0 1
    outer loop
      vertex -9.29776 3.68124 10
      vertex -11.9941 4.74881 10
      vertex -9.68583 2.4869 10
    endloop
  endfacet
  facet normal -0 0 1
    outer loop
      vertex -11.9941 4.74881 10
      vertex -9.29776 3.68124 10
      vertex -11.3044 6.21462 10
    endloop
  endfacet
  facet normal -0 0 1
    outer loop
      vertex 9.29776 -3.68124 10
      vertex 11.9941 -4.74881 10
      vertex 9.68583 -2.4869 10
    endloop
  endfacet
  facet normal 0 0 1
    outer loop
      vertex 11.9941 -4.74881 10
      vertex 9.29776 -3.68124 10
      vertex 11.3044 -6.21462 10
    endloop
  endfacet
  facet normal -0 0 1
    outer loop
      vertex 8.76307 -4.81754 10
      vertex 11.3044 -6.21462 10
      vertex 9.29776 -3.68124 10
    endloop
  endfacet
  facet normal 0 0 1
    outer loop
      vertex 11.3044 -6.21462 10
      vertex 8.76307 -4.81754 10
      vertex 10.4363 -7.58243 10
    endloop
  endfacet
  facet normal -0 0 1
    outer loop
      vertex 8.09017 -5.87785 10
      vertex 10.4363 -7.58243 10
      vertex 8.76307 -4.81754 10
    endloop
  endfacet
  facet normal 0 0 1
    outer loop
      vertex 10.4363 -7.58243 10
      vertex 8.09017 -5.87785 10
      vertex 9.4037 -8.83066 10
    endloop
  endfacet
  facet normal -0 0 1
    outer loop
      vertex 7.28969 -6.84547 10
      vertex 9.4037 -8.83066 10
      vertex 8.09017 -5.87785 10
    endloop
  endfacet
  facet normal 0 0 1
    outer loop
      vertex 9.4037 -8.83066 10
      vertex 7.28969 -6.84547 10
      vertex 8.22277 -9.93962 10
    endloop
  endfacet
  facet normal -0 0 1
    outer loop
      vertex 6.37424 -7.70513 10
      vertex 8.22277 -9.93962 10
      vertex 7.28969 -6.84547 10
    endloop
  endfacet
  facet normal 0 0 1
    outer loop
      vertex 8.22277 -9.93962 10
      vertex 6.37424 -7.70513 10
      vertex 6.91217 -10.8918 10
    endloop
  endfacet
  facet normal -0 0 1
    outer loop
      vertex 5.35827 -8.44328 10
      vertex 6.91217 -10.8918 10
      vertex 6.37424 -7.70513 10
    endloop
  endfacet
  facet normal 0 0 1
    outer loop
      vertex 6.91217 -10.8918 10
      vertex 5.35827 -8.44328 10
      vertex 5.49255 -11.6723 10
    endloop
  endfacet
  facet normal -0 0 1
    outer loop
      vertex 4.25779 -9.04827 10
      vertex 5.49255 -11.6723 10
      vertex 5.35827 -8.44328 10
    endloop
  endfacet
  facet normal 0 0 1
    outer loop
      vertex 4.25779 -9.04827 10
      vertex 3.98632 -12.2686 10
      vertex 5.49255 -11.6723 10
    endloop
  endfacet
  facet normal -0 0 1
    outer loop
      vertex 3.09017 -9.51056 10
      vertex 3.98632 -12.2686 10
      vertex 4.25779 -9.04827 10
    endloop
  endfacet
  facet normal 0 0 1
    outer loop
      vertex 3.09017 -9.51056 10
      vertex 2.41722 -12.6715 10
      vertex 3.98632 -12.2686 10
    endloop
  endfacet
  facet normal -0 0 1
    outer loop
      vertex 1.87381 -9.82287 10
      vertex 2.41722 -12.6715 10
      vertex 3.09017 -9.51056 10
    endloop
  endfacet
  facet normal 0 0 1
    outer loop
      vertex 1.87381 -9.82287 10
      vertex 0.809998 -12.8745 10
      vertex 2.41722 -12.6715 10
    endloop
  endfacet
  facet normal -0 0 1
    outer loop
      vertex 0.627905 -9.98027 10
      vertex 0.809998 -12.8745 10
      vertex 1.87381 -9.82287 10
    endloop
  endfacet
  facet normal -0 0 1
    outer loop
      vertex -0.627905 -9.98027 10
      vertex 0.809998 -12.8745 10
      vertex 0.627905 -9.98027 10
    endloop
  endfacet
  facet normal 0 0 1
    outer loop
      vertex -0.627905 -9.98027 10
      vertex -0.809998 -12.8745 10
      vertex 0.809998 -12.8745 10
    endloop
  endfacet
  facet normal 0 0 1
    outer loop
      vertex -1.87381 -9.82287 10
      vertex -0.809998 -12.8745 10
      vertex -0.627905 -9.98027 10
    endloop
  endfacet
  facet normal 0 0 1
    outer loop
      vertex -1.87381 -9.82287 10
      vertex -2.41722 -12.6715 10
      vertex -0.809998 -12.8745 10
    endloop
  endfacet
  facet normal 0 0 1
    outer loop
      vertex -3.09017 -9.51056 10
      vertex -2.41722 -12.6715 10
      vertex -1.87381 -9.82287 10
    endloop
  endfacet
  facet normal 0 0 1
    outer loop
      vertex -3.09017 -9.51056 10
      vertex -3.98632 -12.2686 10
      vertex -2.41722 -12.6715 10
    endloop
  endfacet
  facet normal 0 0 1
    outer loop
      vertex -4.25779 -9.04827 10
      vertex -3.98632 -12.2686 10
      vertex -3.09017 -9.51056 10
    endloop
  endfacet
  facet normal 0 0 1
    outer loop
      vertex -5.49255 -11.6723 10
      vertex -4.25779 -9.04827 10
      vertex -5.35827 -8.44328 10
    endloop
  endfacet
  facet normal 0 0 1
    outer loop
      vertex -4.25779 -9.04827 10
      vertex -5.49255 -11.6723 10
      vertex -3.98632 -12.2686 10
    endloop
  endfacet
  facet normal 0 0 1
    outer loop
      vertex -6.91217 -10.8918 10
      vertex -5.35827 -8.44328 10
      vertex -6.37424 -7.70513 10
    endloop
  endfacet
  facet normal 0 0 1
    outer loop
      vertex -5.35827 -8.44328 10
      vertex -6.91217 -10.8918 10
      vertex -5.49255 -11.6723 10
    endloop
  endfacet
  facet normal 0 0 1
    outer loop
      vertex -8.22277 -9.93962 10
      vertex -6.37424 -7.70513 10
      vertex -7.28969 -6.84547 10
    endloop
  endfacet
  facet normal 0 0 1
    outer loop
      vertex -9.4037 -8.83066 10
      vertex -7.28969 -6.84547 10
      vertex -8.09017 -5.87785 10
    endloop
  endfacet
  facet normal 0 0 1
    outer loop
      vertex -6.37424 -7.70513 10
      vertex -8.22277 -9.93962 10
      vertex -6.91217 -10.8918 10
    endloop
  endfacet
  facet normal 0 0 1
    outer loop
      vertex -10.4363 -7.58243 10
      vertex -8.09017 -5.87785 10
      vertex -8.76307 -4.81754 10
    endloop
  endfacet
  facet normal 0 0 1
    outer loop
      vertex -11.3044 -6.21462 10
      vertex -8.76307 -4.81754 10
      vertex -9.29776 -3.68124 10
    endloop
  endfacet
  facet normal 0 0 1
    outer loop
      vertex -7.28969 -6.84547 10
      vertex -9.4037 -8.83066 10
      vertex -8.22277 -9.93962 10
    endloop
  endfacet
  facet normal 0 0 1
    outer loop
      vertex -11.9941 -4.74881 10
      vertex -9.29776 -3.68124 10
      vertex -9.68583 -2.4869 10
    endloop
  endfacet
  facet normal 0 0 1
    outer loop
      vertex -12.4947 -3.2081 10
      vertex -9.68583 -2.4869 10
      vertex -9.92115 -1.25333 10
    endloop
  endfacet
  facet normal 0 0 1
    outer loop
      vertex -8.09017 -5.87785 10
      vertex -10.4363 -7.58243 10
      vertex -9.4037 -8.83066 10
    endloop
  endfacet
  facet normal 0 0 1
    outer loop
      vertex -12.7983 -1.6168 10
      vertex -9.92115 -1.25333 10
      vertex -10 0 10
    endloop
  endfacet
  facet normal -0 0 1
    outer loop
      vertex -12.4947 3.2081 10
      vertex -9.68583 2.4869 10
      vertex -11.9941 4.74881 10
    endloop
  endfacet
  facet normal 0 0 1
    outer loop
      vertex -9.68583 2.4869 10
      vertex -12.4947 3.2081 10
      vertex -9.92115 1.25333 10
    endloop
  endfacet
  facet normal 0 0 1
    outer loop
      vertex -8.76307 -4.81754 10
      vertex -11.3044 -6.21462 10
      vertex -10.4363 -7.58243 10
    endloop
  endfacet
  facet normal -0 0 1
    outer loop
      vertex -12.7983 1.6168 10
      vertex -9.92115 1.25333 10
      vertex -12.4947 3.2081 10
    endloop
  endfacet
  facet normal 0 0 1
    outer loop
      vertex -9.29776 -3.68124 10
      vertex -11.9941 -4.74881 10
      vertex -11.3044 -6.21462 10
    endloop
  endfacet
  facet normal 0 0 1
    outer loop
      vertex -9.92115 1.25333 10
      vertex -12.7983 1.6168 10
      vertex -10 0 10
    endloop
  endfacet
  facet normal 0 0 1
    outer loop
      vertex -9.68583 -2.4869 10
      vertex -12.4947 -3.2081 10
      vertex -11.9941 -4.74881 10
    endloop
  endfacet
  facet normal 0 0 1
    outer loop
      vertex -12.9 0 10
      vertex -10 0 10
      vertex -12.7983 1.6168 10
    endloop
  endfacet
  facet normal 0 0 1
    outer loop
      vertex -9.92115 -1.25333 10
      vertex -12.7983 -1.6168 10
      vertex -12.4947 -3.2081 10
    endloop
  endfacet
  facet normal 0 0 1
    outer loop
      vertex -10 0 10
      vertex -12.9 0 10
      vertex -12.7983 -1.6168 10
    endloop
  endfacet
  facet normal -0.587785 0.809017 0
    outer loop
      vertex -6.91217 10.8918 0
      vertex -8.22277 9.93962 10
      vertex -6.91217 10.8918 10
    endloop
  endfacet
  facet normal -0.587785 0.809017 0
    outer loop
      vertex -8.22277 9.93962 10
      vertex -6.91217 10.8918 0
      vertex -8.22277 9.93962 0
    endloop
  endfacet
  facet normal -0.24869 0.968583 0
    outer loop
      vertex -2.41722 12.6715 0
      vertex -3.98632 12.2686 10
      vertex -2.41722 12.6715 10
    endloop
  endfacet
  facet normal -0.24869 0.968583 0
    outer loop
      vertex -3.98632 12.2686 10
      vertex -2.41722 12.6715 0
      vertex -3.98632 12.2686 0
    endloop
  endfacet
  facet normal 0.998027 -0.0627908 0
    outer loop
      vertex 12.7983 -1.6168 10
      vertex 12.9 0 0
      vertex 12.9 0 10
    endloop
  endfacet
  facet normal 0.998027 -0.0627908 0
    outer loop
      vertex 12.9 0 0
      vertex 12.7983 -1.6168 10
      vertex 12.7983 -1.6168 0
    endloop
  endfacet
  facet normal 0.982287 -0.187381 0
    outer loop
      vertex 12.4947 -3.2081 10
      vertex 12.7983 -1.6168 0
      vertex 12.7983 -1.6168 10
    endloop
  endfacet
  facet normal 0.982287 -0.187381 0
    outer loop
      vertex 12.7983 -1.6168 0
      vertex 12.4947 -3.2081 10
      vertex 12.4947 -3.2081 0
    endloop
  endfacet
  facet normal -0.684547 -0.728969 0
    outer loop
      vertex -9.4037 -8.83066 0
      vertex -8.22277 -9.93962 10
      vertex -9.4037 -8.83066 10
    endloop
  endfacet
  facet normal -0.684547 -0.728969 -0
    outer loop
      vertex -8.22277 -9.93962 10
      vertex -9.4037 -8.83066 0
      vertex -8.22277 -9.93962 0
    endloop
  endfacet
  facet normal -0.904827 -0.425779 0
    outer loop
      vertex -11.3044 -6.21462 0
      vertex -11.9941 -4.74881 10
      vertex -11.9941 -4.74881 0
    endloop
  endfacet
  facet normal -0.904827 -0.425779 0
    outer loop
      vertex -11.9941 -4.74881 10
      vertex -11.3044 -6.21462 0
      vertex -11.3044 -6.21462 10
    endloop
  endfacet
  facet normal -0.844328 -0.535827 0
    outer loop
      vertex -10.4363 -7.58243 0
      vertex -11.3044 -6.21462 10
      vertex -11.3044 -6.21462 0
    endloop
  endfacet
  facet normal -0.844328 -0.535827 0
    outer loop
      vertex -11.3044 -6.21462 10
      vertex -10.4363 -7.58243 0
      vertex -10.4363 -7.58243 10
    endloop
  endfacet
  facet normal 0 0 -1
    outer loop
      vertex 4.75 0 0
      vertex 12.9 0 0
      vertex 12.7983 -1.6168 0
    endloop
  endfacet
  facet normal 0 0 -1
    outer loop
      vertex 4.71254 -0.595332 0
      vertex 12.7983 -1.6168 0
      vertex 12.4947 -3.2081 0
    endloop
  endfacet
  facet normal 0 0 -1
    outer loop
      vertex 12.9 0 0
      vertex 4.75 0 0
      vertex 12.7983 1.6168 0
    endloop
  endfacet
  facet normal 0 0 -1
    outer loop
      vertex 4.60077 -1.18128 0
      vertex 12.4947 -3.2081 0
      vertex 11.9941 -4.74881 0
    endloop
  endfacet
  facet normal 0 0 -1
    outer loop
      vertex 4.71254 0.595332 0
      vertex 12.7983 1.6168 0
      vertex 4.75 0 0
    endloop
  endfacet
  facet normal 0 0 -1
    outer loop
      vertex 4.41644 -1.74859 0
      vertex 11.9941 -4.74881 0
      vertex 11.3044 -6.21462 0
    endloop
  endfacet
  facet normal -0 0 -1
    outer loop
      vertex 12.7983 1.6168 0
      vertex 4.71254 0.595332 0
      vertex 12.4947 3.2081 0
    endloop
  endfacet
  facet normal 0 0 -1
    outer loop
      vertex 4.16246 -2.28833 0
      vertex 11.3044 -6.21462 0
      vertex 10.4363 -7.58243 0
    endloop
  endfacet
  facet normal 0 0 -1
    outer loop
      vertex 4.60077 1.18128 0
      vertex 12.4947 3.2081 0
      vertex 4.71254 0.595332 0
    endloop
  endfacet
  facet normal 0 0 -1
    outer loop
      vertex 3.84283 -2.79198 0
      vertex 10.4363 -7.58243 0
      vertex 9.4037 -8.83066 0
    endloop
  endfacet
  facet normal -0 0 -1
    outer loop
      vertex 12.4947 3.2081 0
      vertex 4.60077 1.18128 0
      vertex 11.9941 4.74881 0
    endloop
  endfacet
  facet normal 0 0 -1
    outer loop
      vertex 3.4626 -3.2516 0
      vertex 9.4037 -8.83066 0
      vertex 8.22277 -9.93962 0
    endloop
  endfacet
  facet normal 0 0 -1
    outer loop
      vertex 4.41644 1.74859 0
      vertex 11.9941 4.74881 0
      vertex 4.60077 1.18128 0
    endloop
  endfacet
  facet normal 0 0 -1
    outer loop
      vertex 3.02776 -3.65994 0
      vertex 8.22277 -9.93962 0
      vertex 6.91217 -10.8918 0
    endloop
  endfacet
  facet normal -0 0 -1
    outer loop
      vertex 11.9941 4.74881 0
      vertex 4.41644 1.74859 0
      vertex 11.3044 6.21462 0
    endloop
  endfacet
  facet normal 0 0 -1
    outer loop
      vertex 2.54518 -4.01056 0
      vertex 6.91217 -10.8918 0
      vertex 5.49255 -11.6723 0
    endloop
  endfacet
  facet normal 0 0 -1
    outer loop
      vertex 4.16246 2.28833 0
      vertex 11.3044 6.21462 0
      vertex 4.41644 1.74859 0
    endloop
  endfacet
  facet normal -0 0 -1
    outer loop
      vertex 11.3044 6.21462 0
      vertex 4.16246 2.28833 0
      vertex 10.4363 7.58243 0
    endloop
  endfacet
  facet normal 0 0 -1
    outer loop
      vertex 12.7983 -1.6168 0
      vertex 4.71254 -0.595332 0
      vertex 4.75 0 0
    endloop
  endfacet
  facet normal 0 0 -1
    outer loop
      vertex 12.4947 -3.2081 0
      vertex 4.60077 -1.18128 0
      vertex 4.71254 -0.595332 0
    endloop
  endfacet
  facet normal 0 0 -1
    outer loop
      vertex 11.9941 -4.74881 0
      vertex 4.41644 -1.74859 0
      vertex 4.60077 -1.18128 0
    endloop
  endfacet
  facet normal 0 0 -1
    outer loop
      vertex 11.3044 -6.21462 0
      vertex 4.16246 -2.28833 0
      vertex 4.41644 -1.74859 0
    endloop
  endfacet
  facet normal 0 0 -1
    outer loop
      vertex 2.02245 -4.29793 0
      vertex 5.49255 -11.6723 0
      vertex 3.98632 -12.2686 0
    endloop
  endfacet
  facet normal 0 0 -1
    outer loop
      vertex 10.4363 -7.58243 0
      vertex 3.84283 -2.79198 0
      vertex 4.16246 -2.28833 0
    endloop
  endfacet
  facet normal 0 0 -1
    outer loop
      vertex 9.4037 -8.83066 0
      vertex 3.4626 -3.2516 0
      vertex 3.84283 -2.79198 0
    endloop
  endfacet
  facet normal 0 0 -1
    outer loop
      vertex 8.22277 -9.93962 0
      vertex 3.02776 -3.65994 0
      vertex 3.4626 -3.2516 0
    endloop
  endfacet
  facet normal 0 0 -1
    outer loop
      vertex 6.91217 -10.8918 0
      vertex 2.54518 -4.01056 0
      vertex 3.02776 -3.65994 0
    endloop
  endfacet
  facet normal 0 0 -1
    outer loop
      vertex 1.46783 -4.51752 0
      vertex 3.98632 -12.2686 0
      vertex 2.41722 -12.6715 0
    endloop
  endfacet
  facet normal 0 0 -1
    outer loop
      vertex 5.49255 -11.6723 0
      vertex 2.02245 -4.29793 0
      vertex 2.54518 -4.01056 0
    endloop
  endfacet
  facet normal 0 0 -1
    outer loop
      vertex 3.98632 -12.2686 0
      vertex 1.46783 -4.51752 0
      vertex 2.02245 -4.29793 0
    endloop
  endfacet
  facet normal 0 0 -1
    outer loop
      vertex 2.41722 -12.6715 0
      vertex 0.89006 -4.66586 0
      vertex 1.46783 -4.51752 0
    endloop
  endfacet
  facet normal 0 0 -1
    outer loop
      vertex 0.809998 -12.8745 0
      vertex 0.89006 -4.66586 0
      vertex 2.41722 -12.6715 0
    endloop
  endfacet
  facet normal 0 0 -1
    outer loop
      vertex 0.809998 -12.8745 0
      vertex 0.298255 -4.74063 0
      vertex 0.89006 -4.66586 0
    endloop
  endfacet
  facet normal 0 0 -1
    outer loop
      vertex 0.809998 -12.8745 0
      vertex -0.298255 -4.74063 0
      vertex 0.298255 -4.74063 0
    endloop
  endfacet
  facet normal 0 0 -1
    outer loop
      vertex -0.809998 -12.8745 0
      vertex -0.298255 -4.74063 0
      vertex 0.809998 -12.8745 0
    endloop
  endfacet
  facet normal 0 0 -1
    outer loop
      vertex -0.809998 -12.8745 0
      vertex -0.89006 -4.66586 0
      vertex -0.298255 -4.74063 0
    endloop
  endfacet
  facet normal 0 0 -1
    outer loop
      vertex -2.41722 -12.6715 0
      vertex -0.89006 -4.66586 0
      vertex -0.809998 -12.8745 0
    endloop
  endfacet
  facet normal -0 0 -1
    outer loop
      vertex -0.89006 -4.66586 0
      vertex -2.41722 -12.6715 0
      vertex -1.46783 -4.51752 0
    endloop
  endfacet
  facet normal 0 0 -1
    outer loop
      vertex -3.98632 -12.2686 0
      vertex -1.46783 -4.51752 0
      vertex -2.41722 -12.6715 0
    endloop
  endfacet
  facet normal -0 0 -1
    outer loop
      vertex -1.46783 -4.51752 0
      vertex -3.98632 -12.2686 0
      vertex -2.02245 -4.29793 0
    endloop
  endfacet
  facet normal 0 0 -1
    outer loop
      vertex -5.49255 -11.6723 0
      vertex -2.02245 -4.29793 0
      vertex -3.98632 -12.2686 0
    endloop
  endfacet
  facet normal -0 0 -1
    outer loop
      vertex -2.02245 -4.29793 0
      vertex -5.49255 -11.6723 0
      vertex -2.54518 -4.01056 0
    endloop
  endfacet
  facet normal 0 0 -1
    outer loop
      vertex -6.91217 -10.8918 0
      vertex -2.54518 -4.01056 0
      vertex -5.49255 -11.6723 0
    endloop
  endfacet
  facet normal -0 0 -1
    outer loop
      vertex -2.54518 -4.01056 0
      vertex -6.91217 -10.8918 0
      vertex -3.02776 -3.65994 0
    endloop
  endfacet
  facet normal 0 0 -1
    outer loop
      vertex -8.22277 -9.93962 0
      vertex -3.02776 -3.65994 0
      vertex -6.91217 -10.8918 0
    endloop
  endfacet
  facet normal -0 0 -1
    outer loop
      vertex -3.02776 -3.65994 0
      vertex -8.22277 -9.93962 0
      vertex -3.4626 -3.2516 0
    endloop
  endfacet
  facet normal 0 0 -1
    outer loop
      vertex -9.4037 -8.83066 0
      vertex -3.4626 -3.2516 0
      vertex -8.22277 -9.93962 0
    endloop
  endfacet
  facet normal -0 0 -1
    outer loop
      vertex -3.4626 -3.2516 0
      vertex -9.4037 -8.83066 0
      vertex -3.84283 -2.79198 0
    endloop
  endfacet
  facet normal 0 0 -1
    outer loop
      vertex -10.4363 -7.58243 0
      vertex -3.84283 -2.79198 0
      vertex -9.4037 -8.83066 0
    endloop
  endfacet
  facet normal -0 0 -1
    outer loop
      vertex -3.84283 -2.79198 0
      vertex -10.4363 -7.58243 0
      vertex -4.16246 -2.28833 0
    endloop
  endfacet
  facet normal 0 0 -1
    outer loop
      vertex 3.84283 2.79198 0
      vertex 10.4363 7.58243 0
      vertex 4.16246 2.28833 0
    endloop
  endfacet
  facet normal -0 0 -1
    outer loop
      vertex 10.4363 7.58243 0
      vertex 3.84283 2.79198 0
      vertex 9.4037 8.83066 0
    endloop
  endfacet
  facet normal 0 0 -1
    outer loop
      vertex 3.4626 3.2516 0
      vertex 9.4037 8.83066 0
      vertex 3.84283 2.79198 0
    endloop
  endfacet
  facet normal -0 0 -1
    outer loop
      vertex 9.4037 8.83066 0
      vertex 3.4626 3.2516 0
      vertex 8.22277 9.93962 0
    endloop
  endfacet
  facet normal 0 0 -1
    outer loop
      vertex 3.02776 3.65994 0
      vertex 8.22277 9.93962 0
      vertex 3.4626 3.2516 0
    endloop
  endfacet
  facet normal -0 0 -1
    outer loop
      vertex 8.22277 9.93962 0
      vertex 3.02776 3.65994 0
      vertex 6.91217 10.8918 0
    endloop
  endfacet
  facet normal 0 0 -1
    outer loop
      vertex 2.54518 4.01056 0
      vertex 6.91217 10.8918 0
      vertex 3.02776 3.65994 0
    endloop
  endfacet
  facet normal -0 0 -1
    outer loop
      vertex 6.91217 10.8918 0
      vertex 2.54518 4.01056 0
      vertex 5.49255 11.6723 0
    endloop
  endfacet
  facet normal 0 0 -1
    outer loop
      vertex 2.02245 4.29793 0
      vertex 5.49255 11.6723 0
      vertex 2.54518 4.01056 0
    endloop
  endfacet
  facet normal -0 0 -1
    outer loop
      vertex 5.49255 11.6723 0
      vertex 2.02245 4.29793 0
      vertex 3.98632 12.2686 0
    endloop
  endfacet
  facet normal 0 0 -1
    outer loop
      vertex 1.46783 4.51752 0
      vertex 3.98632 12.2686 0
      vertex 2.02245 4.29793 0
    endloop
  endfacet
  facet normal -0 0 -1
    outer loop
      vertex 3.98632 12.2686 0
      vertex 1.46783 4.51752 0
      vertex 2.41722 12.6715 0
    endloop
  endfacet
  facet normal 0 0 -1
    outer loop
      vertex 0.89006 4.66586 0
      vertex 2.41722 12.6715 0
      vertex 1.46783 4.51752 0
    endloop
  endfacet
  facet normal 0 0 -1
    outer loop
      vertex 0.89006 4.66586 0
      vertex 0.809998 12.8745 0
      vertex 2.41722 12.6715 0
    endloop
  endfacet
  facet normal 0 0 -1
    outer loop
      vertex 0.298255 4.74063 0
      vertex 0.809998 12.8745 0
      vertex 0.89006 4.66586 0
    endloop
  endfacet
  facet normal 0 0 -1
    outer loop
      vertex -0.298255 4.74063 0
      vertex 0.809998 12.8745 0
      vertex 0.298255 4.74063 0
    endloop
  endfacet
  facet normal 0 0 -1
    outer loop
      vertex -0.298255 4.74063 0
      vertex -0.809998 12.8745 0
      vertex 0.809998 12.8745 0
    endloop
  endfacet
  facet normal 0 0 -1
    outer loop
      vertex -0.89006 4.66586 0
      vertex -0.809998 12.8745 0
      vertex -0.298255 4.74063 0
    endloop
  endfacet
  facet normal 0 0 -1
    outer loop
      vertex -2.41722 12.6715 0
      vertex -0.89006 4.66586 0
      vertex -1.46783 4.51752 0
    endloop
  endfacet
  facet normal 0 0 -1
    outer loop
      vertex -3.98632 12.2686 0
      vertex -1.46783 4.51752 0
      vertex -2.02245 4.29793 0
    endloop
  endfacet
  facet normal 0 0 -1
    outer loop
      vertex -0.89006 4.66586 0
      vertex -2.41722 12.6715 0
      vertex -0.809998 12.8745 0
    endloop
  endfacet
  facet normal 0 0 -1
    outer loop
      vertex -5.49255 11.6723 0
      vertex -2.02245 4.29793 0
      vertex -2.54518 4.01056 0
    endloop
  endfacet
  facet normal 0 0 -1
    outer loop
      vertex -6.91217 10.8918 0
      vertex -2.54518 4.01056 0
      vertex -3.02776 3.65994 0
    endloop
  endfacet
  facet normal 0 0 -1
    outer loop
      vertex -8.22277 9.93962 0
      vertex -3.02776 3.65994 0
      vertex -3.4626 3.2516 0
    endloop
  endfacet
  facet normal 0 0 -1
    outer loop
      vertex -9.4037 8.83066 0
      vertex -3.4626 3.2516 0
      vertex -3.84283 2.79198 0
    endloop
  endfacet
  facet normal 0 0 -1
    outer loop
      vertex -1.46783 4.51752 0
      vertex -3.98632 12.2686 0
      vertex -2.41722 12.6715 0
    endloop
  endfacet
  facet normal 0 0 -1
    outer loop
      vertex -10.4363 7.58243 0
      vertex -3.84283 2.79198 0
      vertex -4.16246 2.28833 0
    endloop
  endfacet
  facet normal 0 0 -1
    outer loop
      vertex -11.3044 6.21462 0
      vertex -4.16246 2.28833 0
      vertex -4.41644 1.74859 0
    endloop
  endfacet
  facet normal 0 0 -1
    outer loop
      vertex -11.9941 4.74881 0
      vertex -4.41644 1.74859 0
      vertex -4.60077 1.18128 0
    endloop
  endfacet
  facet normal 0 0 -1
    outer loop
      vertex -12.4947 3.2081 0
      vertex -4.60077 1.18128 0
      vertex -4.71254 0.595332 0
    endloop
  endfacet
  facet normal 0 0 -1
    outer loop
      vertex -12.7983 1.6168 0
      vertex -4.71254 0.595332 0
      vertex -4.75 0 0
    endloop
  endfacet
  facet normal 0 0 -1
    outer loop
      vertex -11.3044 -6.21462 0
      vertex -4.16246 -2.28833 0
      vertex -10.4363 -7.58243 0
    endloop
  endfacet
  facet normal 0 0 -1
    outer loop
      vertex -2.02245 4.29793 0
      vertex -5.49255 11.6723 0
      vertex -3.98632 12.2686 0
    endloop
  endfacet
  facet normal -0 0 -1
    outer loop
      vertex -4.16246 -2.28833 0
      vertex -11.3044 -6.21462 0
      vertex -4.41644 -1.74859 0
    endloop
  endfacet
  facet normal 0 0 -1
    outer loop
      vertex -2.54518 4.01056 0
      vertex -6.91217 10.8918 0
      vertex -5.49255 11.6723 0
    endloop
  endfacet
  facet normal 0 0 -1
    outer loop
      vertex -11.9941 -4.74881 0
      vertex -4.41644 -1.74859 0
      vertex -11.3044 -6.21462 0
    endloop
  endfacet
  facet normal 0 0 -1
    outer loop
      vertex -3.02776 3.65994 0
      vertex -8.22277 9.93962 0
      vertex -6.91217 10.8918 0
    endloop
  endfacet
  facet normal -0 0 -1
    outer loop
      vertex -4.41644 -1.74859 0
      vertex -11.9941 -4.74881 0
      vertex -4.60077 -1.18128 0
    endloop
  endfacet
  facet normal 0 0 -1
    outer loop
      vertex -3.4626 3.2516 0
      vertex -9.4037 8.83066 0
      vertex -8.22277 9.93962 0
    endloop
  endfacet
  facet normal 0 0 -1
    outer loop
      vertex -12.4947 -3.2081 0
      vertex -4.60077 -1.18128 0
      vertex -11.9941 -4.74881 0
    endloop
  endfacet
  facet normal 0 0 -1
    outer loop
      vertex -3.84283 2.79198 0
      vertex -10.4363 7.58243 0
      vertex -9.4037 8.83066 0
    endloop
  endfacet
  facet normal -0 0 -1
    outer loop
      vertex -4.60077 -1.18128 0
      vertex -12.4947 -3.2081 0
      vertex -4.71254 -0.595332 0
    endloop
  endfacet
  facet normal 0 0 -1
    outer loop
      vertex -4.16246 2.28833 0
      vertex -11.3044 6.21462 0
      vertex -10.4363 7.58243 0
    endloop
  endfacet
  facet normal 0 0 -1
    outer loop
      vertex -12.7983 -1.6168 0
      vertex -4.71254 -0.595332 0
      vertex -12.4947 -3.2081 0
    endloop
  endfacet
  facet normal 0 0 -1
    outer loop
      vertex -4.41644 1.74859 0
      vertex -11.9941 4.74881 0
      vertex -11.3044 6.21462 0
    endloop
  endfacet
  facet normal -0 0 -1
    outer loop
      vertex -4.71254 -0.595332 0
      vertex -12.7983 -1.6168 0
      vertex -4.75 0 0
    endloop
  endfacet
  facet normal 0 0 -1
    outer loop
      vertex -4.60077 1.18128 0
      vertex -12.4947 3.2081 0
      vertex -11.9941 4.74881 0
    endloop
  endfacet
  facet normal 0 0 -1
    outer loop
      vertex -12.9 0 0
      vertex -4.75 0 0
      vertex -12.7983 -1.6168 0
    endloop
  endfacet
  facet normal 0 0 -1
    outer loop
      vertex -4.71254 0.595332 0
      vertex -12.7983 1.6168 0
      vertex -12.4947 3.2081 0
    endloop
  endfacet
  facet normal 0 0 -1
    outer loop
      vertex -4.75 0 0
      vertex -12.9 0 0
      vertex -12.7983 1.6168 0
    endloop
  endfacet
  facet normal 0.481754 -0.876307 0
    outer loop
      vertex 5.49255 -11.6723 0
      vertex 6.91217 -10.8918 10
      vertex 5.49255 -11.6723 10
    endloop
  endfacet
  facet normal 0.481754 -0.876307 0
    outer loop
      vertex 6.91217 -10.8918 10
      vertex 5.49255 -11.6723 0
      vertex 6.91217 -10.8918 0
    endloop
  endfacet
  facet normal 0.904827 -0.425779 0
    outer loop
      vertex 11.3044 -6.21462 10
      vertex 11.9941 -4.74881 0
      vertex 11.9941 -4.74881 10
    endloop
  endfacet
  facet normal 0.904827 -0.425779 0
    outer loop
      vertex 11.9941 -4.74881 0
      vertex 11.3044 -6.21462 10
      vertex 11.3044 -6.21462 0
    endloop
  endfacet
  facet normal -0.368124 -0.929777 0
    outer loop
      vertex -5.49255 -11.6723 0
      vertex -3.98632 -12.2686 10
      vertex -5.49255 -11.6723 10
    endloop
  endfacet
  facet normal -0.368124 -0.929777 -0
    outer loop
      vertex -3.98632 -12.2686 10
      vertex -5.49255 -11.6723 0
      vertex -3.98632 -12.2686 0
    endloop
  endfacet
  facet normal -0.770513 -0.637424 0
    outer loop
      vertex -9.4037 -8.83066 0
      vertex -10.4363 -7.58243 10
      vertex -10.4363 -7.58243 0
    endloop
  endfacet
  facet normal -0.770513 -0.637424 0
    outer loop
      vertex -10.4363 -7.58243 10
      vertex -9.4037 -8.83066 0
      vertex -9.4037 -8.83066 10
    endloop
  endfacet
  facet normal -0.951056 -0.309017 0
    outer loop
      vertex -11.9941 -4.74881 0
      vertex -12.4947 -3.2081 10
      vertex -12.4947 -3.2081 0
    endloop
  endfacet
  facet normal -0.951056 -0.309017 0
    outer loop
      vertex -12.4947 -3.2081 10
      vertex -11.9941 -4.74881 0
      vertex -11.9941 -4.74881 10
    endloop
  endfacet
  facet normal 0.587785 -0.809017 0
    outer loop
      vertex 6.91217 -10.8918 0
      vertex 8.22277 -9.93962 10
      vertex 6.91217 -10.8918 10
    endloop
  endfacet
  facet normal 0.587785 -0.809017 0
    outer loop
      vertex 8.22277 -9.93962 10
      vertex 6.91217 -10.8918 0
      vertex 8.22277 -9.93962 0
    endloop
  endfacet
  facet normal 0.24869 -0.968583 0
    outer loop
      vertex 2.41722 -12.6715 0
      vertex 3.98632 -12.2686 10
      vertex 2.41722 -12.6715 10
    endloop
  endfacet
  facet normal 0.24869 -0.968583 0
    outer loop
      vertex 3.98632 -12.2686 10
      vertex 2.41722 -12.6715 0
      vertex 3.98632 -12.2686 0
    endloop
  endfacet
  facet normal 0.844328 -0.535827 0
    outer loop
      vertex 10.4363 -7.58243 10
      vertex 11.3044 -6.21462 0
      vertex 11.3044 -6.21462 10
    endloop
  endfacet
  facet normal 0.844328 -0.535827 0
    outer loop
      vertex 11.3044 -6.21462 0
      vertex 10.4363 -7.58243 10
      vertex 10.4363 -7.58243 0
    endloop
  endfacet
  facet normal 0.770513 -0.637424 0
    outer loop
      vertex 9.4037 -8.83066 10
      vertex 10.4363 -7.58243 0
      vertex 10.4363 -7.58243 10
    endloop
  endfacet
  facet normal 0.770513 -0.637424 0
    outer loop
      vertex 10.4363 -7.58243 0
      vertex 9.4037 -8.83066 10
      vertex 9.4037 -8.83066 0
    endloop
  endfacet
  facet normal 0.951056 -0.309017 0
    outer loop
      vertex 11.9941 -4.74881 10
      vertex 12.4947 -3.2081 0
      vertex 12.4947 -3.2081 10
    endloop
  endfacet
  facet normal 0.951056 -0.309017 0
    outer loop
      vertex 12.4947 -3.2081 0
      vertex 11.9941 -4.74881 10
      vertex 11.9941 -4.74881 0
    endloop
  endfacet
  facet normal -0.125333 -0.992115 0
    outer loop
      vertex -2.41722 -12.6715 0
      vertex -0.809998 -12.8745 10
      vertex -2.41722 -12.6715 10
    endloop
  endfacet
  facet normal -0.125333 -0.992115 -0
    outer loop
      vertex -0.809998 -12.8745 10
      vertex -2.41722 -12.6715 0
      vertex -0.809998 -12.8745 0
    endloop
  endfacet
  facet normal -0.481754 -0.876307 0
    outer loop
      vertex -6.91217 -10.8918 0
      vertex -5.49255 -11.6723 10
      vertex -6.91217 -10.8918 10
    endloop
  endfacet
  facet normal -0.481754 -0.876307 -0
    outer loop
      vertex -5.49255 -11.6723 10
      vertex -6.91217 -10.8918 0
      vertex -5.49255 -11.6723 0
    endloop
  endfacet
  facet normal -0.587785 -0.809017 0
    outer loop
      vertex -8.22277 -9.93962 0
      vertex -6.91217 -10.8918 10
      vertex -8.22277 -9.93962 10
    endloop
  endfacet
  facet normal -0.587785 -0.809017 -0
    outer loop
      vertex -6.91217 -10.8918 10
      vertex -8.22277 -9.93962 0
      vertex -6.91217 -10.8918 0
    endloop
  endfacet
  facet normal -0.982287 -0.187381 0
    outer loop
      vertex -12.4947 -3.2081 0
      vertex -12.7983 -1.6168 10
      vertex -12.7983 -1.6168 0
    endloop
  endfacet
  facet normal -0.982287 -0.187381 0
    outer loop
      vertex -12.7983 -1.6168 10
      vertex -12.4947 -3.2081 0
      vertex -12.4947 -3.2081 10
    endloop
  endfacet
  facet normal -0.998027 -0.0627908 0
    outer loop
      vertex -12.7983 -1.6168 0
      vertex -12.9 0 10
      vertex -12.9 0 0
    endloop
  endfacet
  facet normal -0.998027 -0.0627908 0
    outer loop
      vertex -12.9 0 10
      vertex -12.7983 -1.6168 0
      vertex -12.7983 -1.6168 10
    endloop
  endfacet
  facet normal -0.24869 -0.968583 0
    outer loop
      vertex -3.98632 -12.2686 0
      vertex -2.41722 -12.6715 10
      vertex -3.98632 -12.2686 10
    endloop
  endfacet
  facet normal -0.24869 -0.968583 -0
    outer loop
      vertex -2.41722 -12.6715 10
      vertex -3.98632 -12.2686 0
      vertex -2.41722 -12.6715 0
    endloop
  endfacet
  facet normal -0.998027 -0.062791 0
    outer loop
      vertex 10 0 3
      vertex 9.92115 1.25333 10
      vertex 9.92115 1.25333 3
    endloop
  endfacet
  facet normal -0.998027 -0.062791 0
    outer loop
      vertex 9.92115 1.25333 10
      vertex 10 0 3
      vertex 10 0 10
    endloop
  endfacet
  facet normal 0.998027 -0.062791 0
    outer loop
      vertex -10 0 10
      vertex -9.92115 1.25333 3
      vertex -9.92115 1.25333 10
    endloop
  endfacet
  facet normal 0.998027 -0.062791 0
    outer loop
      vertex -9.92115 1.25333 3
      vertex -10 0 10
      vertex -10 0 3
    endloop
  endfacet
  facet normal 0 -1 0
    outer loop
      vertex -0.627905 9.98027 3
      vertex 0.627905 9.98027 10
      vertex -0.627905 9.98027 10
    endloop
  endfacet
  facet normal 0 -1 -0
    outer loop
      vertex 0.627905 9.98027 10
      vertex -0.627905 9.98027 3
      vertex 0.627905 9.98027 3
    endloop
  endfacet
  facet normal -0.684547 -0.728969 0
    outer loop
      vertex 6.37424 7.70513 3
      vertex 7.28969 6.84547 10
      vertex 6.37424 7.70513 10
    endloop
  endfacet
  facet normal -0.684547 -0.728969 -0
    outer loop
      vertex 7.28969 6.84547 10
      vertex 6.37424 7.70513 3
      vertex 7.28969 6.84547 3
    endloop
  endfacet
  facet normal 0.684547 -0.728969 0
    outer loop
      vertex -7.28969 6.84547 3
      vertex -6.37424 7.70513 10
      vertex -7.28969 6.84547 10
    endloop
  endfacet
  facet normal 0.684547 -0.728969 0
    outer loop
      vertex -6.37424 7.70513 10
      vertex -7.28969 6.84547 3
      vertex -6.37424 7.70513 3
    endloop
  endfacet
  facet normal 0.368125 -0.929776 0
    outer loop
      vertex -4.25779 9.04827 3
      vertex -3.09017 9.51056 10
      vertex -4.25779 9.04827 10
    endloop
  endfacet
  facet normal 0.368125 -0.929776 0
    outer loop
      vertex -3.09017 9.51056 10
      vertex -4.25779 9.04827 3
      vertex -3.09017 9.51056 3
    endloop
  endfacet
  facet normal -0.904827 -0.425779 0
    outer loop
      vertex 9.29776 3.68124 3
      vertex 8.76307 4.81754 10
      vertex 8.76307 4.81754 3
    endloop
  endfacet
  facet normal -0.904827 -0.425779 0
    outer loop
      vertex 8.76307 4.81754 10
      vertex 9.29776 3.68124 3
      vertex 9.29776 3.68124 10
    endloop
  endfacet
  facet normal -0.844328 -0.535826 0
    outer loop
      vertex 8.76307 4.81754 3
      vertex 8.09017 5.87785 10
      vertex 8.09017 5.87785 3
    endloop
  endfacet
  facet normal -0.844328 -0.535826 0
    outer loop
      vertex 8.09017 5.87785 10
      vertex 8.76307 4.81754 3
      vertex 8.76307 4.81754 10
    endloop
  endfacet
  facet normal -0.368125 -0.929776 0
    outer loop
      vertex 3.09017 9.51056 3
      vertex 4.25779 9.04827 10
      vertex 3.09017 9.51056 10
    endloop
  endfacet
  facet normal -0.368125 -0.929776 -0
    outer loop
      vertex 4.25779 9.04827 10
      vertex 3.09017 9.51056 3
      vertex 4.25779 9.04827 3
    endloop
  endfacet
  facet normal -0.24869 -0.968583 0
    outer loop
      vertex 1.87381 9.82287 3
      vertex 3.09017 9.51056 10
      vertex 1.87381 9.82287 10
    endloop
  endfacet
  facet normal -0.24869 -0.968583 -0
    outer loop
      vertex 3.09017 9.51056 10
      vertex 1.87381 9.82287 3
      vertex 3.09017 9.51056 3
    endloop
  endfacet
  facet normal -0.587786 -0.809017 0
    outer loop
      vertex 5.35827 8.44328 3
      vertex 6.37424 7.70513 10
      vertex 5.35827 8.44328 10
    endloop
  endfacet
  facet normal -0.587786 -0.809017 -0
    outer loop
      vertex 6.37424 7.70513 10
      vertex 5.35827 8.44328 3
      vertex 6.37424 7.70513 3
    endloop
  endfacet
  facet normal 0.844328 -0.535826 0
    outer loop
      vertex -8.76307 4.81754 10
      vertex -8.09017 5.87785 3
      vertex -8.09017 5.87785 10
    endloop
  endfacet
  facet normal 0.844328 -0.535826 0
    outer loop
      vertex -8.09017 5.87785 3
      vertex -8.76307 4.81754 10
      vertex -8.76307 4.81754 3
    endloop
  endfacet
  facet normal 0.770513 -0.637424 0
    outer loop
      vertex -8.09017 5.87785 10
      vertex -7.28969 6.84547 3
      vertex -7.28969 6.84547 10
    endloop
  endfacet
  facet normal 0.770513 -0.637424 0
    outer loop
      vertex -7.28969 6.84547 3
      vertex -8.09017 5.87785 10
      vertex -8.09017 5.87785 3
    endloop
  endfacet
  facet normal 0.951057 -0.309017 0
    outer loop
      vertex -9.68583 2.4869 10
      vertex -9.29776 3.68124 3
      vertex -9.29776 3.68124 10
    endloop
  endfacet
  facet normal 0.951057 -0.309017 0
    outer loop
      vertex -9.29776 3.68124 3
      vertex -9.68583 2.4869 10
      vertex -9.68583 2.4869 3
    endloop
  endfacet
  facet normal 0.481754 -0.876307 0
    outer loop
      vertex -5.35827 8.44328 3
      vertex -4.25779 9.04827 10
      vertex -5.35827 8.44328 10
    endloop
  endfacet
  facet normal 0.481754 -0.876307 0
    outer loop
      vertex -4.25779 9.04827 10
      vertex -5.35827 8.44328 3
      vertex -4.25779 9.04827 3
    endloop
  endfacet
  facet normal 0.125333 -0.992115 0
    outer loop
      vertex -1.87381 9.82287 3
      vertex -0.627905 9.98027 10
      vertex -1.87381 9.82287 10
    endloop
  endfacet
  facet normal 0.125333 -0.992115 0
    outer loop
      vertex -0.627905 9.98027 10
      vertex -1.87381 9.82287 3
      vertex -0.627905 9.98027 3
    endloop
  endfacet
  facet normal -0.998027 0.062791 0
    outer loop
      vertex 9.92115 -1.25333 3
      vertex 10 0 10
      vertex 10 0 3
    endloop
  endfacet
  facet normal -0.998027 0.062791 0
    outer loop
      vertex 10 0 10
      vertex 9.92115 -1.25333 3
      vertex 9.92115 -1.25333 10
    endloop
  endfacet
  facet normal 0.24869 0.968583 -0
    outer loop
      vertex -1.87381 -9.82287 3
      vertex -3.09017 -9.51056 10
      vertex -1.87381 -9.82287 10
    endloop
  endfacet
  facet normal 0.24869 0.968583 0
    outer loop
      vertex -3.09017 -9.51056 10
      vertex -1.87381 -9.82287 3
      vertex -3.09017 -9.51056 3
    endloop
  endfacet
  facet normal -0.125333 0.992115 0
    outer loop
      vertex 1.87381 -9.82287 3
      vertex 0.627905 -9.98027 10
      vertex 1.87381 -9.82287 10
    endloop
  endfacet
  facet normal -0.125333 0.992115 0
    outer loop
      vertex 0.627905 -9.98027 10
      vertex 1.87381 -9.82287 3
      vertex 0.627905 -9.98027 3
    endloop
  endfacet
  facet normal -0.951057 -0.309017 0
    outer loop
      vertex 9.68583 2.4869 3
      vertex 9.29776 3.68124 10
      vertex 9.29776 3.68124 3
    endloop
  endfacet
  facet normal -0.951057 -0.309017 0
    outer loop
      vertex 9.29776 3.68124 10
      vertex 9.68583 2.4869 3
      vertex 9.68583 2.4869 10
    endloop
  endfacet
  facet normal -0.982287 -0.187381 0
    outer loop
      vertex 9.92115 1.25333 3
      vertex 9.68583 2.4869 10
      vertex 9.68583 2.4869 3
    endloop
  endfacet
  facet normal -0.982287 -0.187381 0
    outer loop
      vertex 9.68583 2.4869 10
      vertex 9.92115 1.25333 3
      vertex 9.92115 1.25333 10
    endloop
  endfacet
  facet normal -0.770513 -0.637424 0
    outer loop
      vertex 8.09017 5.87785 3
      vertex 7.28969 6.84547 10
      vertex 7.28969 6.84547 3
    endloop
  endfacet
  facet normal -0.770513 -0.637424 0
    outer loop
      vertex 7.28969 6.84547 10
      vertex 8.09017 5.87785 3
      vertex 8.09017 5.87785 10
    endloop
  endfacet
  facet normal -0.125333 -0.992115 0
    outer loop
      vertex 0.627905 9.98027 3
      vertex 1.87381 9.82287 10
      vertex 0.627905 9.98027 10
    endloop
  endfacet
  facet normal -0.125333 -0.992115 -0
    outer loop
      vertex 1.87381 9.82287 10
      vertex 0.627905 9.98027 3
      vertex 1.87381 9.82287 3
    endloop
  endfacet
  facet normal -0.481754 -0.876307 0
    outer loop
      vertex 4.25779 9.04827 3
      vertex 5.35827 8.44328 10
      vertex 4.25779 9.04827 10
    endloop
  endfacet
  facet normal -0.481754 -0.876307 -0
    outer loop
      vertex 5.35827 8.44328 10
      vertex 4.25779 9.04827 3
      vertex 5.35827 8.44328 3
    endloop
  endfacet
  facet normal 0.904827 -0.425779 0
    outer loop
      vertex -9.29776 3.68124 10
      vertex -8.76307 4.81754 3
      vertex -8.76307 4.81754 10
    endloop
  endfacet
  facet normal 0.904827 -0.425779 0
    outer loop
      vertex -8.76307 4.81754 3
      vertex -9.29776 3.68124 10
      vertex -9.29776 3.68124 3
    endloop
  endfacet
  facet normal 0.982287 -0.187381 0
    outer loop
      vertex -9.92115 1.25333 10
      vertex -9.68583 2.4869 3
      vertex -9.68583 2.4869 10
    endloop
  endfacet
  facet normal 0.982287 -0.187381 0
    outer loop
      vertex -9.68583 2.4869 3
      vertex -9.92115 1.25333 10
      vertex -9.92115 1.25333 3
    endloop
  endfacet
  facet normal -0.951057 0.309017 0
    outer loop
      vertex 9.29776 -3.68124 3
      vertex 9.68583 -2.4869 10
      vertex 9.68583 -2.4869 3
    endloop
  endfacet
  facet normal -0.951057 0.309017 0
    outer loop
      vertex 9.68583 -2.4869 10
      vertex 9.29776 -3.68124 3
      vertex 9.29776 -3.68124 10
    endloop
  endfacet
  facet normal -0.982287 0.187381 0
    outer loop
      vertex 9.68583 -2.4869 3
      vertex 9.92115 -1.25333 10
      vertex 9.92115 -1.25333 3
    endloop
  endfacet
  facet normal -0.982287 0.187381 0
    outer loop
      vertex 9.92115 -1.25333 10
      vertex 9.68583 -2.4869 3
      vertex 9.68583 -2.4869 10
    endloop
  endfacet
  facet normal 0.125333 0.992115 -0
    outer loop
      vertex -0.627905 -9.98027 3
      vertex -1.87381 -9.82287 10
      vertex -0.627905 -9.98027 10
    endloop
  endfacet
  facet normal 0.125333 0.992115 0
    outer loop
      vertex -1.87381 -9.82287 10
      vertex -0.627905 -9.98027 3
      vertex -1.87381 -9.82287 3
    endloop
  endfacet
  facet normal 0.951057 0.309017 0
    outer loop
      vertex -9.29776 -3.68124 10
      vertex -9.68583 -2.4869 3
      vertex -9.68583 -2.4869 10
    endloop
  endfacet
  facet normal 0.951057 0.309017 0
    outer loop
      vertex -9.68583 -2.4869 3
      vertex -9.29776 -3.68124 10
      vertex -9.29776 -3.68124 3
    endloop
  endfacet
  facet normal -0.368125 0.929776 0
    outer loop
      vertex 4.25779 -9.04827 3
      vertex 3.09017 -9.51056 10
      vertex 4.25779 -9.04827 10
    endloop
  endfacet
  facet normal -0.368125 0.929776 0
    outer loop
      vertex 3.09017 -9.51056 10
      vertex 4.25779 -9.04827 3
      vertex 3.09017 -9.51056 3
    endloop
  endfacet
  facet normal -0.24869 0.968583 0
    outer loop
      vertex 3.09017 -9.51056 3
      vertex 1.87381 -9.82287 10
      vertex 3.09017 -9.51056 10
    endloop
  endfacet
  facet normal -0.24869 0.968583 0
    outer loop
      vertex 1.87381 -9.82287 10
      vertex 3.09017 -9.51056 3
      vertex 1.87381 -9.82287 3
    endloop
  endfacet
  facet normal 0.587786 -0.809017 0
    outer loop
      vertex -6.37424 7.70513 3
      vertex -5.35827 8.44328 10
      vertex -6.37424 7.70513 10
    endloop
  endfacet
  facet normal 0.587786 -0.809017 0
    outer loop
      vertex -5.35827 8.44328 10
      vertex -6.37424 7.70513 3
      vertex -5.35827 8.44328 3
    endloop
  endfacet
  facet normal 0.24869 -0.968583 0
    outer loop
      vertex -3.09017 9.51056 3
      vertex -1.87381 9.82287 10
      vertex -3.09017 9.51056 10
    endloop
  endfacet
  facet normal 0.24869 -0.968583 0
    outer loop
      vertex -1.87381 9.82287 10
      vertex -3.09017 9.51056 3
      vertex -1.87381 9.82287 3
    endloop
  endfacet
  facet normal -0.481754 0.876307 0
    outer loop
      vertex 5.35827 -8.44328 3
      vertex 4.25779 -9.04827 10
      vertex 5.35827 -8.44328 10
    endloop
  endfacet
  facet normal -0.481754 0.876307 0
    outer loop
      vertex 4.25779 -9.04827 10
      vertex 5.35827 -8.44328 3
      vertex 4.25779 -9.04827 3
    endloop
  endfacet
  facet normal -0.770513 0.637424 0
    outer loop
      vertex 7.28969 -6.84547 3
      vertex 8.09017 -5.87785 10
      vertex 8.09017 -5.87785 3
    endloop
  endfacet
  facet normal -0.770513 0.637424 0
    outer loop
      vertex 8.09017 -5.87785 10
      vertex 7.28969 -6.84547 3
      vertex 7.28969 -6.84547 10
    endloop
  endfacet
  facet normal -0.844328 0.535826 0
    outer loop
      vertex 8.09017 -5.87785 3
      vertex 8.76307 -4.81754 10
      vertex 8.76307 -4.81754 3
    endloop
  endfacet
  facet normal -0.844328 0.535826 0
    outer loop
      vertex 8.76307 -4.81754 10
      vertex 8.09017 -5.87785 3
      vertex 8.09017 -5.87785 10
    endloop
  endfacet
  facet normal 0.368125 0.929776 -0
    outer loop
      vertex -3.09017 -9.51056 3
      vertex -4.25779 -9.04827 10
      vertex -3.09017 -9.51056 10
    endloop
  endfacet
  facet normal 0.368125 0.929776 0
    outer loop
      vertex -4.25779 -9.04827 10
      vertex -3.09017 -9.51056 3
      vertex -4.25779 -9.04827 3
    endloop
  endfacet
  facet normal 0.770513 0.637424 0
    outer loop
      vertex -7.28969 -6.84547 10
      vertex -8.09017 -5.87785 3
      vertex -8.09017 -5.87785 10
    endloop
  endfacet
  facet normal 0.770513 0.637424 0
    outer loop
      vertex -8.09017 -5.87785 3
      vertex -7.28969 -6.84547 10
      vertex -7.28969 -6.84547 3
    endloop
  endfacet
  facet normal 0.998027 0.062791 0
    outer loop
      vertex -9.92115 -1.25333 10
      vertex -10 0 3
      vertex -10 0 10
    endloop
  endfacet
  facet normal 0.998027 0.062791 0
    outer loop
      vertex -10 0 3
      vertex -9.92115 -1.25333 10
      vertex -9.92115 -1.25333 3
    endloop
  endfacet
  facet normal -0.684547 0.728969 0
    outer loop
      vertex 7.28969 -6.84547 3
      vertex 6.37424 -7.70513 10
      vertex 7.28969 -6.84547 10
    endloop
  endfacet
  facet normal -0.684547 0.728969 0
    outer loop
      vertex 6.37424 -7.70513 10
      vertex 7.28969 -6.84547 3
      vertex 6.37424 -7.70513 3
    endloop
  endfacet
  facet normal -0.587786 0.809017 0
    outer loop
      vertex 6.37424 -7.70513 3
      vertex 5.35827 -8.44328 10
      vertex 6.37424 -7.70513 10
    endloop
  endfacet
  facet normal -0.587786 0.809017 0
    outer loop
      vertex 5.35827 -8.44328 10
      vertex 6.37424 -7.70513 3
      vertex 5.35827 -8.44328 3
    endloop
  endfacet
  facet normal -0.904827 0.425779 0
    outer loop
      vertex 8.76307 -4.81754 3
      vertex 9.29776 -3.68124 10
      vertex 9.29776 -3.68124 3
    endloop
  endfacet
  facet normal -0.904827 0.425779 0
    outer loop
      vertex 9.29776 -3.68124 10
      vertex 8.76307 -4.81754 3
      vertex 8.76307 -4.81754 10
    endloop
  endfacet
  facet normal 0 1 -0
    outer loop
      vertex 0.627905 -9.98027 3
      vertex -0.627905 -9.98027 10
      vertex 0.627905 -9.98027 10
    endloop
  endfacet
  facet normal 0 1 0
    outer loop
      vertex -0.627905 -9.98027 10
      vertex 0.627905 -9.98027 3
      vertex -0.627905 -9.98027 3
    endloop
  endfacet
  facet normal 0.684547 0.728969 -0
    outer loop
      vertex -6.37424 -7.70513 3
      vertex -7.28969 -6.84547 10
      vertex -6.37424 -7.70513 10
    endloop
  endfacet
  facet normal 0.684547 0.728969 0
    outer loop
      vertex -7.28969 -6.84547 10
      vertex -6.37424 -7.70513 3
      vertex -7.28969 -6.84547 3
    endloop
  endfacet
  facet normal 0.481754 0.876307 -0
    outer loop
      vertex -4.25779 -9.04827 3
      vertex -5.35827 -8.44328 10
      vertex -4.25779 -9.04827 10
    endloop
  endfacet
  facet normal 0.481754 0.876307 0
    outer loop
      vertex -5.35827 -8.44328 10
      vertex -4.25779 -9.04827 3
      vertex -5.35827 -8.44328 3
    endloop
  endfacet
  facet normal 0.844328 0.535826 0
    outer loop
      vertex -8.09017 -5.87785 10
      vertex -8.76307 -4.81754 3
      vertex -8.76307 -4.81754 10
    endloop
  endfacet
  facet normal 0.844328 0.535826 0
    outer loop
      vertex -8.76307 -4.81754 3
      vertex -8.09017 -5.87785 10
      vertex -8.09017 -5.87785 3
    endloop
  endfacet
  facet normal 0.904827 0.425779 0
    outer loop
      vertex -8.76307 -4.81754 10
      vertex -9.29776 -3.68124 3
      vertex -9.29776 -3.68124 10
    endloop
  endfacet
  facet normal 0.904827 0.425779 0
    outer loop
      vertex -9.29776 -3.68124 3
      vertex -8.76307 -4.81754 10
      vertex -8.76307 -4.81754 3
    endloop
  endfacet
  facet normal 0 0 1
    outer loop
      vertex 4.75 0 3
      vertex 10 0 3
      vertex 9.92115 1.25333 3
    endloop
  endfacet
  facet normal 0 0 1
    outer loop
      vertex 4.71254 0.595332 3
      vertex 9.92115 1.25333 3
      vertex 9.68583 2.4869 3
    endloop
  endfacet
  facet normal 0 0 1
    outer loop
      vertex 10 0 3
      vertex 4.75 0 3
      vertex 9.92115 -1.25333 3
    endloop
  endfacet
  facet normal 0 0 1
    outer loop
      vertex 4.60077 1.18128 3
      vertex 9.68583 2.4869 3
      vertex 9.29776 3.68124 3
    endloop
  endfacet
  facet normal -0 0 1
    outer loop
      vertex 4.71254 -0.595332 3
      vertex 9.92115 -1.25333 3
      vertex 4.75 0 3
    endloop
  endfacet
  facet normal 0 0 1
    outer loop
      vertex 4.41644 1.74859 3
      vertex 9.29776 3.68124 3
      vertex 8.76307 4.81754 3
    endloop
  endfacet
  facet normal 0 0 1
    outer loop
      vertex 9.92115 -1.25333 3
      vertex 4.71254 -0.595332 3
      vertex 9.68583 -2.4869 3
    endloop
  endfacet
  facet normal 0 0 1
    outer loop
      vertex 4.16246 2.28833 3
      vertex 8.76307 4.81754 3
      vertex 8.09017 5.87785 3
    endloop
  endfacet
  facet normal -0 0 1
    outer loop
      vertex 4.60077 -1.18128 3
      vertex 9.68583 -2.4869 3
      vertex 4.71254 -0.595332 3
    endloop
  endfacet
  facet normal 0 0 1
    outer loop
      vertex 3.84283 2.79198 3
      vertex 8.09017 5.87785 3
      vertex 7.28969 6.84547 3
    endloop
  endfacet
  facet normal 0 0 1
    outer loop
      vertex 9.68583 -2.4869 3
      vertex 4.60077 -1.18128 3
      vertex 9.29776 -3.68124 3
    endloop
  endfacet
  facet normal 0 0 1
    outer loop
      vertex 3.4626 3.2516 3
      vertex 7.28969 6.84547 3
      vertex 6.37424 7.70513 3
    endloop
  endfacet
  facet normal -0 0 1
    outer loop
      vertex 4.41644 -1.74859 3
      vertex 9.29776 -3.68124 3
      vertex 4.60077 -1.18128 3
    endloop
  endfacet
  facet normal 0 0 1
    outer loop
      vertex 3.02776 3.65994 3
      vertex 6.37424 7.70513 3
      vertex 5.35827 8.44328 3
    endloop
  endfacet
  facet normal 0 0 1
    outer loop
      vertex 9.29776 -3.68124 3
      vertex 4.41644 -1.74859 3
      vertex 8.76307 -4.81754 3
    endloop
  endfacet
  facet normal -0 0 1
    outer loop
      vertex 4.16246 -2.28833 3
      vertex 8.76307 -4.81754 3
      vertex 4.41644 -1.74859 3
    endloop
  endfacet
  facet normal 0 0 1
    outer loop
      vertex 9.92115 1.25333 3
      vertex 4.71254 0.595332 3
      vertex 4.75 0 3
    endloop
  endfacet
  facet normal 0 0 1
    outer loop
      vertex 9.68583 2.4869 3
      vertex 4.60077 1.18128 3
      vertex 4.71254 0.595332 3
    endloop
  endfacet
  facet normal 0 0 1
    outer loop
      vertex 9.29776 3.68124 3
      vertex 4.41644 1.74859 3
      vertex 4.60077 1.18128 3
    endloop
  endfacet
  facet normal 0 0 1
    outer loop
      vertex 2.54518 4.01056 3
      vertex 5.35827 8.44328 3
      vertex 4.25779 9.04827 3
    endloop
  endfacet
  facet normal 0 0 1
    outer loop
      vertex 8.76307 4.81754 3
      vertex 4.16246 2.28833 3
      vertex 4.41644 1.74859 3
    endloop
  endfacet
  facet normal 0 0 1
    outer loop
      vertex 8.09017 5.87785 3
      vertex 3.84283 2.79198 3
      vertex 4.16246 2.28833 3
    endloop
  endfacet
  facet normal 0 0 1
    outer loop
      vertex 7.28969 6.84547 3
      vertex 3.4626 3.2516 3
      vertex 3.84283 2.79198 3
    endloop
  endfacet
  facet normal 0 0 1
    outer loop
      vertex 2.02245 4.29793 3
      vertex 4.25779 9.04827 3
      vertex 3.09017 9.51056 3
    endloop
  endfacet
  facet normal 0 0 1
    outer loop
      vertex 6.37424 7.70513 3
      vertex 3.02776 3.65994 3
      vertex 3.4626 3.2516 3
    endloop
  endfacet
  facet normal 0 0 1
    outer loop
      vertex 5.35827 8.44328 3
      vertex 2.54518 4.01056 3
      vertex 3.02776 3.65994 3
    endloop
  endfacet
  facet normal 0 0 1
    outer loop
      vertex 4.25779 9.04827 3
      vertex 2.02245 4.29793 3
      vertex 2.54518 4.01056 3
    endloop
  endfacet
  facet normal 0 0 1
    outer loop
      vertex 1.46783 4.51752 3
      vertex 3.09017 9.51056 3
      vertex 1.87381 9.82287 3
    endloop
  endfacet
  facet normal 0 0 1
    outer loop
      vertex 3.09017 9.51056 3
      vertex 1.46783 4.51752 3
      vertex 2.02245 4.29793 3
    endloop
  endfacet
  facet normal 0 0 1
    outer loop
      vertex 1.87381 9.82287 3
      vertex 0.89006 4.66586 3
      vertex 1.46783 4.51752 3
    endloop
  endfacet
  facet normal 0 0 1
    outer loop
      vertex 0.627905 9.98027 3
      vertex 0.89006 4.66586 3
      vertex 1.87381 9.82287 3
    endloop
  endfacet
  facet normal 0 0 1
    outer loop
      vertex 0.627905 9.98027 3
      vertex 0.298255 4.74063 3
      vertex 0.89006 4.66586 3
    endloop
  endfacet
  facet normal 0 0 1
    outer loop
      vertex 0.627905 9.98027 3
      vertex -0.298255 4.74063 3
      vertex 0.298255 4.74063 3
    endloop
  endfacet
  facet normal -0 0 1
    outer loop
      vertex -0.627905 9.98027 3
      vertex -0.298255 4.74063 3
      vertex 0.627905 9.98027 3
    endloop
  endfacet
  facet normal 0 0 1
    outer loop
      vertex -0.627905 9.98027 3
      vertex -0.89006 4.66586 3
      vertex -0.298255 4.74063 3
    endloop
  endfacet
  facet normal -0 0 1
    outer loop
      vertex -1.87381 9.82287 3
      vertex -0.89006 4.66586 3
      vertex -0.627905 9.98027 3
    endloop
  endfacet
  facet normal 0 0 1
    outer loop
      vertex -0.89006 4.66586 3
      vertex -1.87381 9.82287 3
      vertex -1.46783 4.51752 3
    endloop
  endfacet
  facet normal -0 0 1
    outer loop
      vertex -3.09017 9.51056 3
      vertex -1.46783 4.51752 3
      vertex -1.87381 9.82287 3
    endloop
  endfacet
  facet normal 0 0 1
    outer loop
      vertex -1.46783 4.51752 3
      vertex -3.09017 9.51056 3
      vertex -2.02245 4.29793 3
    endloop
  endfacet
  facet normal -0 0 1
    outer loop
      vertex -4.25779 9.04827 3
      vertex -2.02245 4.29793 3
      vertex -3.09017 9.51056 3
    endloop
  endfacet
  facet normal 0 0 1
    outer loop
      vertex -2.02245 4.29793 3
      vertex -4.25779 9.04827 3
      vertex -2.54518 4.01056 3
    endloop
  endfacet
  facet normal -0 0 1
    outer loop
      vertex -5.35827 8.44328 3
      vertex -2.54518 4.01056 3
      vertex -4.25779 9.04827 3
    endloop
  endfacet
  facet normal 0 0 1
    outer loop
      vertex -2.54518 4.01056 3
      vertex -5.35827 8.44328 3
      vertex -3.02776 3.65994 3
    endloop
  endfacet
  facet normal -0 0 1
    outer loop
      vertex -6.37424 7.70513 3
      vertex -3.02776 3.65994 3
      vertex -5.35827 8.44328 3
    endloop
  endfacet
  facet normal 0 0 1
    outer loop
      vertex -3.02776 3.65994 3
      vertex -6.37424 7.70513 3
      vertex -3.4626 3.2516 3
    endloop
  endfacet
  facet normal -0 0 1
    outer loop
      vertex -7.28969 6.84547 3
      vertex -3.4626 3.2516 3
      vertex -6.37424 7.70513 3
    endloop
  endfacet
  facet normal 0 0 1
    outer loop
      vertex -3.4626 3.2516 3
      vertex -7.28969 6.84547 3
      vertex -3.84283 2.79198 3
    endloop
  endfacet
  facet normal -0 0 1
    outer loop
      vertex -8.09017 5.87785 3
      vertex -3.84283 2.79198 3
      vertex -7.28969 6.84547 3
    endloop
  endfacet
  facet normal 0 0 1
    outer loop
      vertex -3.84283 2.79198 3
      vertex -8.09017 5.87785 3
      vertex -4.16246 2.28833 3
    endloop
  endfacet
  facet normal -0 0 1
    outer loop
      vertex -8.76307 4.81754 3
      vertex -4.16246 2.28833 3
      vertex -8.09017 5.87785 3
    endloop
  endfacet
  facet normal 0 0 1
    outer loop
      vertex 8.76307 -4.81754 3
      vertex 4.16246 -2.28833 3
      vertex 8.09017 -5.87785 3
    endloop
  endfacet
  facet normal -0 0 1
    outer loop
      vertex 3.84283 -2.79198 3
      vertex 8.09017 -5.87785 3
      vertex 4.16246 -2.28833 3
    endloop
  endfacet
  facet normal 0 0 1
    outer loop
      vertex 8.09017 -5.87785 3
      vertex 3.84283 -2.79198 3
      vertex 7.28969 -6.84547 3
    endloop
  endfacet
  facet normal -0 0 1
    outer loop
      vertex 3.4626 -3.2516 3
      vertex 7.28969 -6.84547 3
      vertex 3.84283 -2.79198 3
    endloop
  endfacet
  facet normal 0 0 1
    outer loop
      vertex 7.28969 -6.84547 3
      vertex 3.4626 -3.2516 3
      vertex 6.37424 -7.70513 3
    endloop
  endfacet
  facet normal -0 0 1
    outer loop
      vertex 3.02776 -3.65994 3
      vertex 6.37424 -7.70513 3
      vertex 3.4626 -3.2516 3
    endloop
  endfacet
  facet normal 0 0 1
    outer loop
      vertex 6.37424 -7.70513 3
      vertex 3.02776 -3.65994 3
      vertex 5.35827 -8.44328 3
    endloop
  endfacet
  facet normal -0 0 1
    outer loop
      vertex 2.54518 -4.01056 3
      vertex 5.35827 -8.44328 3
      vertex 3.02776 -3.65994 3
    endloop
  endfacet
  facet normal 0 0 1
    outer loop
      vertex 5.35827 -8.44328 3
      vertex 2.54518 -4.01056 3
      vertex 4.25779 -9.04827 3
    endloop
  endfacet
  facet normal -0 0 1
    outer loop
      vertex 2.02245 -4.29793 3
      vertex 4.25779 -9.04827 3
      vertex 2.54518 -4.01056 3
    endloop
  endfacet
  facet normal 0 0 1
    outer loop
      vertex 4.25779 -9.04827 3
      vertex 2.02245 -4.29793 3
      vertex 3.09017 -9.51056 3
    endloop
  endfacet
  facet normal -0 0 1
    outer loop
      vertex 1.46783 -4.51752 3
      vertex 3.09017 -9.51056 3
      vertex 2.02245 -4.29793 3
    endloop
  endfacet
  facet normal 0 0 1
    outer loop
      vertex 3.09017 -9.51056 3
      vertex 1.46783 -4.51752 3
      vertex 1.87381 -9.82287 3
    endloop
  endfacet
  facet normal -0 0 1
    outer loop
      vertex 0.89006 -4.66586 3
      vertex 1.87381 -9.82287 3
      vertex 1.46783 -4.51752 3
    endloop
  endfacet
  facet normal 0 0 1
    outer loop
      vertex 0.89006 -4.66586 3
      vertex 0.627905 -9.98027 3
      vertex 1.87381 -9.82287 3
    endloop
  endfacet
  facet normal -0 0 1
    outer loop
      vertex 0.298255 -4.74063 3
      vertex 0.627905 -9.98027 3
      vertex 0.89006 -4.66586 3
    endloop
  endfacet
  facet normal -0 0 1
    outer loop
      vertex -0.298255 -4.74063 3
      vertex 0.627905 -9.98027 3
      vertex 0.298255 -4.74063 3
    endloop
  endfacet
  facet normal 0 0 1
    outer loop
      vertex -0.298255 -4.74063 3
      vertex -0.627905 -9.98027 3
      vertex 0.627905 -9.98027 3
    endloop
  endfacet
  facet normal 0 0 1
    outer loop
      vertex -0.89006 -4.66586 3
      vertex -0.627905 -9.98027 3
      vertex -0.298255 -4.74063 3
    endloop
  endfacet
  facet normal 0 0 1
    outer loop
      vertex -1.87381 -9.82287 3
      vertex -0.89006 -4.66586 3
      vertex -1.46783 -4.51752 3
    endloop
  endfacet
  facet normal 0 0 1
    outer loop
      vertex -0.89006 -4.66586 3
      vertex -1.87381 -9.82287 3
      vertex -0.627905 -9.98027 3
    endloop
  endfacet
  facet normal 0 0 1
    outer loop
      vertex -3.09017 -9.51056 3
      vertex -1.46783 -4.51752 3
      vertex -2.02245 -4.29793 3
    endloop
  endfacet
  facet normal 0 0 1
    outer loop
      vertex -4.25779 -9.04827 3
      vertex -2.02245 -4.29793 3
      vertex -2.54518 -4.01056 3
    endloop
  endfacet
  facet normal 0 0 1
    outer loop
      vertex -5.35827 -8.44328 3
      vertex -2.54518 -4.01056 3
      vertex -3.02776 -3.65994 3
    endloop
  endfacet
  facet normal 0 0 1
    outer loop
      vertex -1.46783 -4.51752 3
      vertex -3.09017 -9.51056 3
      vertex -1.87381 -9.82287 3
    endloop
  endfacet
  facet normal 0 0 1
    outer loop
      vertex -6.37424 -7.70513 3
      vertex -3.02776 -3.65994 3
      vertex -3.4626 -3.2516 3
    endloop
  endfacet
  facet normal 0 0 1
    outer loop
      vertex -7.28969 -6.84547 3
      vertex -3.4626 -3.2516 3
      vertex -3.84283 -2.79198 3
    endloop
  endfacet
  facet normal 0 0 1
    outer loop
      vertex -8.09017 -5.87785 3
      vertex -3.84283 -2.79198 3
      vertex -4.16246 -2.28833 3
    endloop
  endfacet
  facet normal 0 0 1
    outer loop
      vertex -2.02245 -4.29793 3
      vertex -4.25779 -9.04827 3
      vertex -3.09017 -9.51056 3
    endloop
  endfacet
  facet normal 0 0 1
    outer loop
      vertex -8.76307 -4.81754 3
      vertex -4.16246 -2.28833 3
      vertex -4.41644 -1.74859 3
    endloop
  endfacet
  facet normal 0 0 1
    outer loop
      vertex -9.29776 -3.68124 3
      vertex -4.41644 -1.74859 3
      vertex -4.60077 -1.18128 3
    endloop
  endfacet
  facet normal 0 0 1
    outer loop
      vertex -9.68583 -2.4869 3
      vertex -4.60077 -1.18128 3
      vertex -4.71254 -0.595332 3
    endloop
  endfacet
  facet normal 0 0 1
    outer loop
      vertex -9.92115 -1.25333 3
      vertex -4.71254 -0.595332 3
      vertex -4.75 0 3
    endloop
  endfacet
  facet normal 0 0 1
    outer loop
      vertex -4.16246 2.28833 3
      vertex -8.76307 4.81754 3
      vertex -4.41644 1.74859 3
    endloop
  endfacet
  facet normal 0 0 1
    outer loop
      vertex -2.54518 -4.01056 3
      vertex -5.35827 -8.44328 3
      vertex -4.25779 -9.04827 3
    endloop
  endfacet
  facet normal -0 0 1
    outer loop
      vertex -9.29776 3.68124 3
      vertex -4.41644 1.74859 3
      vertex -8.76307 4.81754 3
    endloop
  endfacet
  facet normal 0 0 1
    outer loop
      vertex -3.02776 -3.65994 3
      vertex -6.37424 -7.70513 3
      vertex -5.35827 -8.44328 3
    endloop
  endfacet
  facet normal 0 0 1
    outer loop
      vertex -4.41644 1.74859 3
      vertex -9.29776 3.68124 3
      vertex -4.60077 1.18128 3
    endloop
  endfacet
  facet normal 0 0 1
    outer loop
      vertex -3.4626 -3.2516 3
      vertex -7.28969 -6.84547 3
      vertex -6.37424 -7.70513 3
    endloop
  endfacet
  facet normal -0 0 1
    outer loop
      vertex -9.68583 2.4869 3
      vertex -4.60077 1.18128 3
      vertex -9.29776 3.68124 3
    endloop
  endfacet
  facet normal 0 0 1
    outer loop
      vertex -3.84283 -2.79198 3
      vertex -8.09017 -5.87785 3
      vertex -7.28969 -6.84547 3
    endloop
  endfacet
  facet normal 0 0 1
    outer loop
      vertex -4.60077 1.18128 3
      vertex -9.68583 2.4869 3
      vertex -4.71254 0.595332 3
    endloop
  endfacet
  facet normal 0 0 1
    outer loop
      vertex -4.16246 -2.28833 3
      vertex -8.76307 -4.81754 3
      vertex -8.09017 -5.87785 3
    endloop
  endfacet
  facet normal -0 0 1
    outer loop
      vertex -9.92115 1.25333 3
      vertex -4.71254 0.595332 3
      vertex -9.68583 2.4869 3
    endloop
  endfacet
  facet normal 0 0 1
    outer loop
      vertex -4.41644 -1.74859 3
      vertex -9.29776 -3.68124 3
      vertex -8.76307 -4.81754 3
    endloop
  endfacet
  facet normal 0 0 1
    outer loop
      vertex -4.71254 0.595332 3
      vertex -9.92115 1.25333 3
      vertex -4.75 0 3
    endloop
  endfacet
  facet normal 0 0 1
    outer loop
      vertex -4.60077 -1.18128 3
      vertex -9.68583 -2.4869 3
      vertex -9.29776 -3.68124 3
    endloop
  endfacet
  facet normal 0 0 1
    outer loop
      vertex -10 0 3
      vertex -4.75 0 3
      vertex -9.92115 1.25333 3
    endloop
  endfacet
  facet normal 0 0 1
    outer loop
      vertex -4.71254 -0.595332 3
      vertex -9.92115 -1.25333 3
      vertex -9.68583 -2.4869 3
    endloop
  endfacet
  facet normal 0 0 1
    outer loop
      vertex -4.75 0 3
      vertex -10 0 3
      vertex -9.92115 -1.25333 3
    endloop
  endfacet
  facet normal 0.982287 0.187381 0
    outer loop
      vertex -9.68583 -2.4869 10
      vertex -9.92115 -1.25333 3
      vertex -9.92115 -1.25333 10
    endloop
  endfacet
  facet normal 0.982287 0.187381 0
    outer loop
      vertex -9.92115 -1.25333 3
      vertex -9.68583 -2.4869 10
      vertex -9.68583 -2.4869 3
    endloop
  endfacet
  facet normal 0.587786 0.809017 -0
    outer loop
      vertex -5.35827 -8.44328 3
      vertex -6.37424 -7.70513 10
      vertex -5.35827 -8.44328 10
    endloop
  endfacet
  facet normal 0.587786 0.809017 0
    outer loop
      vertex -6.37424 -7.70513 10
      vertex -5.35827 -8.44328 3
      vertex -6.37424 -7.70513 3
    endloop
  endfacet
  facet normal -0.998027 -0.0627912 0
    outer loop
      vertex 4.75 0 0
      vertex 4.71254 0.595332 3
      vertex 4.71254 0.595332 0
    endloop
  endfacet
  facet normal -0.998027 -0.0627912 0
    outer loop
      vertex 4.71254 0.595332 3
      vertex 4.75 0 0
      vertex 4.75 0 3
    endloop
  endfacet
  facet normal 0.998027 -0.0627912 0
    outer loop
      vertex -4.75 0 3
      vertex -4.71254 0.595332 0
      vertex -4.71254 0.595332 3
    endloop
  endfacet
  facet normal 0.998027 -0.0627912 0
    outer loop
      vertex -4.71254 0.595332 0
      vertex -4.75 0 3
      vertex -4.75 0 0
    endloop
  endfacet
  facet normal 0 -1 0
    outer loop
      vertex -0.298255 4.74063 0
      vertex 0.298255 4.74063 3
      vertex -0.298255 4.74063 3
    endloop
  endfacet
  facet normal 0 -1 -0
    outer loop
      vertex 0.298255 4.74063 3
      vertex -0.298255 4.74063 0
      vertex 0.298255 4.74063 0
    endloop
  endfacet
  facet normal 0 1 -0
    outer loop
      vertex 0.298255 -4.74063 0
      vertex -0.298255 -4.74063 3
      vertex 0.298255 -4.74063 3
    endloop
  endfacet
  facet normal 0 1 0
    outer loop
      vertex -0.298255 -4.74063 3
      vertex 0.298255 -4.74063 0
      vertex -0.298255 -4.74063 0
    endloop
  endfacet
  facet normal -0.684547 -0.728969 0
    outer loop
      vertex 3.02776 3.65994 0
      vertex 3.4626 3.2516 3
      vertex 3.02776 3.65994 3
    endloop
  endfacet
  facet normal -0.684547 -0.728969 -0
    outer loop
      vertex 3.4626 3.2516 3
      vertex 3.02776 3.65994 0
      vertex 3.4626 3.2516 0
    endloop
  endfacet
  facet normal 0.684547 -0.728969 0
    outer loop
      vertex -3.4626 3.2516 0
      vertex -3.02776 3.65994 3
      vertex -3.4626 3.2516 3
    endloop
  endfacet
  facet normal 0.684547 -0.728969 0
    outer loop
      vertex -3.02776 3.65994 3
      vertex -3.4626 3.2516 0
      vertex -3.02776 3.65994 0
    endloop
  endfacet
  facet normal 0.368125 -0.929776 0
    outer loop
      vertex -2.02245 4.29793 0
      vertex -1.46783 4.51752 3
      vertex -2.02245 4.29793 3
    endloop
  endfacet
  facet normal 0.368125 -0.929776 0
    outer loop
      vertex -1.46783 4.51752 3
      vertex -2.02245 4.29793 0
      vertex -1.46783 4.51752 0
    endloop
  endfacet
  facet normal -0.904827 -0.42578 0
    outer loop
      vertex 4.41644 1.74859 0
      vertex 4.16246 2.28833 3
      vertex 4.16246 2.28833 0
    endloop
  endfacet
  facet normal -0.904827 -0.42578 0
    outer loop
      vertex 4.16246 2.28833 3
      vertex 4.41644 1.74859 0
      vertex 4.41644 1.74859 3
    endloop
  endfacet
  facet normal -0.982287 -0.187381 0
    outer loop
      vertex 4.71254 0.595332 0
      vertex 4.60077 1.18128 3
      vertex 4.60077 1.18128 0
    endloop
  endfacet
  facet normal -0.982287 -0.187381 0
    outer loop
      vertex 4.60077 1.18128 3
      vertex 4.71254 0.595332 0
      vertex 4.71254 0.595332 3
    endloop
  endfacet
  facet normal -0.844328 -0.535826 0
    outer loop
      vertex 4.16246 2.28833 0
      vertex 3.84283 2.79198 3
      vertex 3.84283 2.79198 0
    endloop
  endfacet
  facet normal -0.844328 -0.535826 0
    outer loop
      vertex 3.84283 2.79198 3
      vertex 4.16246 2.28833 0
      vertex 4.16246 2.28833 3
    endloop
  endfacet
  facet normal -0.368125 -0.929776 0
    outer loop
      vertex 1.46783 4.51752 0
      vertex 2.02245 4.29793 3
      vertex 1.46783 4.51752 3
    endloop
  endfacet
  facet normal -0.368125 -0.929776 -0
    outer loop
      vertex 2.02245 4.29793 3
      vertex 1.46783 4.51752 0
      vertex 2.02245 4.29793 0
    endloop
  endfacet
  facet normal -0.24869 -0.968583 0
    outer loop
      vertex 0.89006 4.66586 0
      vertex 1.46783 4.51752 3
      vertex 0.89006 4.66586 3
    endloop
  endfacet
  facet normal -0.24869 -0.968583 -0
    outer loop
      vertex 1.46783 4.51752 3
      vertex 0.89006 4.66586 0
      vertex 1.46783 4.51752 0
    endloop
  endfacet
  facet normal -0.481754 -0.876307 0
    outer loop
      vertex 2.02245 4.29793 0
      vertex 2.54518 4.01056 3
      vertex 2.02245 4.29793 3
    endloop
  endfacet
  facet normal -0.481754 -0.876307 -0
    outer loop
      vertex 2.54518 4.01056 3
      vertex 2.02245 4.29793 0
      vertex 2.54518 4.01056 0
    endloop
  endfacet
  facet normal 0.904827 -0.42578 0
    outer loop
      vertex -4.41644 1.74859 3
      vertex -4.16246 2.28833 0
      vertex -4.16246 2.28833 3
    endloop
  endfacet
  facet normal 0.904827 -0.42578 0
    outer loop
      vertex -4.16246 2.28833 0
      vertex -4.41644 1.74859 3
      vertex -4.41644 1.74859 0
    endloop
  endfacet
  facet normal 0.770513 -0.637424 0
    outer loop
      vertex -3.84283 2.79198 3
      vertex -3.4626 3.2516 0
      vertex -3.4626 3.2516 3
    endloop
  endfacet
  facet normal 0.770513 -0.637424 0
    outer loop
      vertex -3.4626 3.2516 0
      vertex -3.84283 2.79198 3
      vertex -3.84283 2.79198 0
    endloop
  endfacet
  facet normal 0.951056 -0.309017 0
    outer loop
      vertex -4.60077 1.18128 3
      vertex -4.41644 1.74859 0
      vertex -4.41644 1.74859 3
    endloop
  endfacet
  facet normal 0.951056 -0.309017 0
    outer loop
      vertex -4.41644 1.74859 0
      vertex -4.60077 1.18128 3
      vertex -4.60077 1.18128 0
    endloop
  endfacet
  facet normal 0.24869 -0.968583 0
    outer loop
      vertex -1.46783 4.51752 0
      vertex -0.89006 4.66586 3
      vertex -1.46783 4.51752 3
    endloop
  endfacet
  facet normal 0.24869 -0.968583 0
    outer loop
      vertex -0.89006 4.66586 3
      vertex -1.46783 4.51752 0
      vertex -0.89006 4.66586 0
    endloop
  endfacet
  facet normal -0.125333 0.992115 0
    outer loop
      vertex 0.89006 -4.66586 0
      vertex 0.298255 -4.74063 3
      vertex 0.89006 -4.66586 3
    endloop
  endfacet
  facet normal -0.125333 0.992115 0
    outer loop
      vertex 0.298255 -4.74063 3
      vertex 0.89006 -4.66586 0
      vertex 0.298255 -4.74063 0
    endloop
  endfacet
  facet normal -0.951056 -0.309017 0
    outer loop
      vertex 4.60077 1.18128 0
      vertex 4.41644 1.74859 3
      vertex 4.41644 1.74859 0
    endloop
  endfacet
  facet normal -0.951056 -0.309017 0
    outer loop
      vertex 4.41644 1.74859 3
      vertex 4.60077 1.18128 0
      vertex 4.60077 1.18128 3
    endloop
  endfacet
  facet normal -0.770513 -0.637424 0
    outer loop
      vertex 3.84283 2.79198 0
      vertex 3.4626 3.2516 3
      vertex 3.4626 3.2516 0
    endloop
  endfacet
  facet normal -0.770513 -0.637424 0
    outer loop
      vertex 3.4626 3.2516 3
      vertex 3.84283 2.79198 0
      vertex 3.84283 2.79198 3
    endloop
  endfacet
  facet normal -0.125333 -0.992115 0
    outer loop
      vertex 0.298255 4.74063 0
      vertex 0.89006 4.66586 3
      vertex 0.298255 4.74063 3
    endloop
  endfacet
  facet normal -0.125333 -0.992115 -0
    outer loop
      vertex 0.89006 4.66586 3
      vertex 0.298255 4.74063 0
      vertex 0.89006 4.66586 0
    endloop
  endfacet
  facet normal -0.587785 -0.809017 0
    outer loop
      vertex 2.54518 4.01056 0
      vertex 3.02776 3.65994 3
      vertex 2.54518 4.01056 3
    endloop
  endfacet
  facet normal -0.587785 -0.809017 -0
    outer loop
      vertex 3.02776 3.65994 3
      vertex 2.54518 4.01056 0
      vertex 3.02776 3.65994 0
    endloop
  endfacet
  facet normal 0.844328 -0.535826 0
    outer loop
      vertex -4.16246 2.28833 3
      vertex -3.84283 2.79198 0
      vertex -3.84283 2.79198 3
    endloop
  endfacet
  facet normal 0.844328 -0.535826 0
    outer loop
      vertex -3.84283 2.79198 0
      vertex -4.16246 2.28833 3
      vertex -4.16246 2.28833 0
    endloop
  endfacet
  facet normal 0.982287 -0.187381 0
    outer loop
      vertex -4.71254 0.595332 3
      vertex -4.60077 1.18128 0
      vertex -4.60077 1.18128 3
    endloop
  endfacet
  facet normal 0.982287 -0.187381 0
    outer loop
      vertex -4.60077 1.18128 0
      vertex -4.71254 0.595332 3
      vertex -4.71254 0.595332 0
    endloop
  endfacet
  facet normal 0.481754 -0.876307 0
    outer loop
      vertex -2.54518 4.01056 0
      vertex -2.02245 4.29793 3
      vertex -2.54518 4.01056 3
    endloop
  endfacet
  facet normal 0.481754 -0.876307 0
    outer loop
      vertex -2.02245 4.29793 3
      vertex -2.54518 4.01056 0
      vertex -2.02245 4.29793 0
    endloop
  endfacet
  facet normal 0.587785 -0.809017 0
    outer loop
      vertex -3.02776 3.65994 0
      vertex -2.54518 4.01056 3
      vertex -3.02776 3.65994 3
    endloop
  endfacet
  facet normal 0.587785 -0.809017 0
    outer loop
      vertex -2.54518 4.01056 3
      vertex -3.02776 3.65994 0
      vertex -2.54518 4.01056 0
    endloop
  endfacet
  facet normal 0.125333 -0.992115 0
    outer loop
      vertex -0.89006 4.66586 0
      vertex -0.298255 4.74063 3
      vertex -0.89006 4.66586 3
    endloop
  endfacet
  facet normal 0.125333 -0.992115 0
    outer loop
      vertex -0.298255 4.74063 3
      vertex -0.89006 4.66586 0
      vertex -0.298255 4.74063 0
    endloop
  endfacet
  facet normal -0.770513 0.637424 0
    outer loop
      vertex 3.4626 -3.2516 0
      vertex 3.84283 -2.79198 3
      vertex 3.84283 -2.79198 0
    endloop
  endfacet
  facet normal -0.770513 0.637424 0
    outer loop
      vertex 3.84283 -2.79198 3
      vertex 3.4626 -3.2516 0
      vertex 3.4626 -3.2516 3
    endloop
  endfacet
  facet normal -0.951056 0.309017 0
    outer loop
      vertex 4.41644 -1.74859 0
      vertex 4.60077 -1.18128 3
      vertex 4.60077 -1.18128 0
    endloop
  endfacet
  facet normal -0.951056 0.309017 0
    outer loop
      vertex 4.60077 -1.18128 3
      vertex 4.41644 -1.74859 0
      vertex 4.41644 -1.74859 3
    endloop
  endfacet
  facet normal -0.982287 0.187381 0
    outer loop
      vertex 4.60077 -1.18128 0
      vertex 4.71254 -0.595332 3
      vertex 4.71254 -0.595332 0
    endloop
  endfacet
  facet normal -0.982287 0.187381 0
    outer loop
      vertex 4.71254 -0.595332 3
      vertex 4.60077 -1.18128 0
      vertex 4.60077 -1.18128 3
    endloop
  endfacet
  facet normal 0.904827 0.42578 0
    outer loop
      vertex -4.16246 -2.28833 3
      vertex -4.41644 -1.74859 0
      vertex -4.41644 -1.74859 3
    endloop
  endfacet
  facet normal 0.904827 0.42578 0
    outer loop
      vertex -4.41644 -1.74859 0
      vertex -4.16246 -2.28833 3
      vertex -4.16246 -2.28833 0
    endloop
  endfacet
  facet normal -0.481754 0.876307 0
    outer loop
      vertex 2.54518 -4.01056 0
      vertex 2.02245 -4.29793 3
      vertex 2.54518 -4.01056 3
    endloop
  endfacet
  facet normal -0.481754 0.876307 0
    outer loop
      vertex 2.02245 -4.29793 3
      vertex 2.54518 -4.01056 0
      vertex 2.02245 -4.29793 0
    endloop
  endfacet
  facet normal -0.684547 0.728969 0
    outer loop
      vertex 3.4626 -3.2516 0
      vertex 3.02776 -3.65994 3
      vertex 3.4626 -3.2516 3
    endloop
  endfacet
  facet normal -0.684547 0.728969 0
    outer loop
      vertex 3.02776 -3.65994 3
      vertex 3.4626 -3.2516 0
      vertex 3.02776 -3.65994 0
    endloop
  endfacet
  facet normal -0.844328 0.535826 0
    outer loop
      vertex 3.84283 -2.79198 0
      vertex 4.16246 -2.28833 3
      vertex 4.16246 -2.28833 0
    endloop
  endfacet
  facet normal -0.844328 0.535826 0
    outer loop
      vertex 4.16246 -2.28833 3
      vertex 3.84283 -2.79198 0
      vertex 3.84283 -2.79198 3
    endloop
  endfacet
  facet normal -0.998027 0.0627912 0
    outer loop
      vertex 4.71254 -0.595332 0
      vertex 4.75 0 3
      vertex 4.75 0 0
    endloop
  endfacet
  facet normal -0.998027 0.0627912 0
    outer loop
      vertex 4.75 0 3
      vertex 4.71254 -0.595332 0
      vertex 4.71254 -0.595332 3
    endloop
  endfacet
  facet normal 0.24869 0.968583 -0
    outer loop
      vertex -0.89006 -4.66586 0
      vertex -1.46783 -4.51752 3
      vertex -0.89006 -4.66586 3
    endloop
  endfacet
  facet normal 0.24869 0.968583 0
    outer loop
      vertex -1.46783 -4.51752 3
      vertex -0.89006 -4.66586 0
      vertex -1.46783 -4.51752 0
    endloop
  endfacet
  facet normal 0.951056 0.309017 0
    outer loop
      vertex -4.41644 -1.74859 3
      vertex -4.60077 -1.18128 0
      vertex -4.60077 -1.18128 3
    endloop
  endfacet
  facet normal 0.951056 0.309017 0
    outer loop
      vertex -4.60077 -1.18128 0
      vertex -4.41644 -1.74859 3
      vertex -4.41644 -1.74859 0
    endloop
  endfacet
  facet normal -0.368125 0.929776 0
    outer loop
      vertex 2.02245 -4.29793 0
      vertex 1.46783 -4.51752 3
      vertex 2.02245 -4.29793 3
    endloop
  endfacet
  facet normal -0.368125 0.929776 0
    outer loop
      vertex 1.46783 -4.51752 3
      vertex 2.02245 -4.29793 0
      vertex 1.46783 -4.51752 0
    endloop
  endfacet
  facet normal -0.24869 0.968583 0
    outer loop
      vertex 1.46783 -4.51752 0
      vertex 0.89006 -4.66586 3
      vertex 1.46783 -4.51752 3
    endloop
  endfacet
  facet normal -0.24869 0.968583 0
    outer loop
      vertex 0.89006 -4.66586 3
      vertex 1.46783 -4.51752 0
      vertex 0.89006 -4.66586 0
    endloop
  endfacet
  facet normal -0.904827 0.42578 0
    outer loop
      vertex 4.16246 -2.28833 0
      vertex 4.41644 -1.74859 3
      vertex 4.41644 -1.74859 0
    endloop
  endfacet
  facet normal -0.904827 0.42578 0
    outer loop
      vertex 4.41644 -1.74859 3
      vertex 4.16246 -2.28833 0
      vertex 4.16246 -2.28833 3
    endloop
  endfacet
  facet normal 0.125333 0.992115 -0
    outer loop
      vertex -0.298255 -4.74063 0
      vertex -0.89006 -4.66586 3
      vertex -0.298255 -4.74063 3
    endloop
  endfacet
  facet normal 0.125333 0.992115 0
    outer loop
      vertex -0.89006 -4.66586 3
      vertex -0.298255 -4.74063 0
      vertex -0.89006 -4.66586 0
    endloop
  endfacet
  facet normal 0.368125 0.929776 -0
    outer loop
      vertex -1.46783 -4.51752 0
      vertex -2.02245 -4.29793 3
      vertex -1.46783 -4.51752 3
    endloop
  endfacet
  facet normal 0.368125 0.929776 0
    outer loop
      vertex -2.02245 -4.29793 3
      vertex -1.46783 -4.51752 0
      vertex -2.02245 -4.29793 0
    endloop
  endfacet
  facet normal 0.770513 0.637424 0
    outer loop
      vertex -3.4626 -3.2516 3
      vertex -3.84283 -2.79198 0
      vertex -3.84283 -2.79198 3
    endloop
  endfacet
  facet normal 0.770513 0.637424 0
    outer loop
      vertex -3.84283 -2.79198 0
      vertex -3.4626 -3.2516 3
      vertex -3.4626 -3.2516 0
    endloop
  endfacet
  facet normal 0.684547 0.728969 -0
    outer loop
      vertex -3.02776 -3.65994 0
      vertex -3.4626 -3.2516 3
      vertex -3.02776 -3.65994 3
    endloop
  endfacet
  facet normal 0.684547 0.728969 0
    outer loop
      vertex -3.4626 -3.2516 3
      vertex -3.02776 -3.65994 0
      vertex -3.4626 -3.2516 0
    endloop
  endfacet
  facet normal 0.982287 0.187381 0
    outer loop
      vertex -4.60077 -1.18128 3
      vertex -4.71254 -0.595332 0
      vertex -4.71254 -0.595332 3
    endloop
  endfacet
  facet normal 0.982287 0.187381 0
    outer loop
      vertex -4.71254 -0.595332 0
      vertex -4.60077 -1.18128 3
      vertex -4.60077 -1.18128 0
    endloop
  endfacet
  facet normal 0.998027 0.0627912 0
    outer loop
      vertex -4.71254 -0.595332 3
      vertex -4.75 0 0
      vertex -4.75 0 3
    endloop
  endfacet
  facet normal 0.998027 0.0627912 0
    outer loop
      vertex -4.75 0 0
      vertex -4.71254 -0.595332 3
      vertex -4.71254 -0.595332 0
    endloop
  endfacet
  facet normal -0.587785 0.809017 0
    outer loop
      vertex 3.02776 -3.65994 0
      vertex 2.54518 -4.01056 3
      vertex 3.02776 -3.65994 3
    endloop
  endfacet
  facet normal -0.587785 0.809017 0
    outer loop
      vertex 2.54518 -4.01056 3
      vertex 3.02776 -3.65994 0
      vertex 2.54518 -4.01056 0
    endloop
  endfacet
  facet normal 0.587785 0.809017 -0
    outer loop
      vertex -2.54518 -4.01056 0
      vertex -3.02776 -3.65994 3
      vertex -2.54518 -4.01056 3
    endloop
  endfacet
  facet normal 0.587785 0.809017 0
    outer loop
      vertex -3.02776 -3.65994 3
      vertex -2.54518 -4.01056 0
      vertex -3.02776 -3.65994 0
    endloop
  endfacet
  facet normal 0.844328 0.535826 0
    outer loop
      vertex -3.84283 -2.79198 3
      vertex -4.16246 -2.28833 0
      vertex -4.16246 -2.28833 3
    endloop
  endfacet
  facet normal 0.844328 0.535826 0
    outer loop
      vertex -4.16246 -2.28833 0
      vertex -3.84283 -2.79198 3
      vertex -3.84283 -2.79198 0
    endloop
  endfacet
  facet normal 0.481754 0.876307 -0
    outer loop
      vertex -2.02245 -4.29793 0
      vertex -2.54518 -4.01056 3
      vertex -2.02245 -4.29793 3
    endloop
  endfacet
  facet normal 0.481754 0.876307 0
    outer loop
      vertex -2.54518 -4.01056 3
      vertex -2.02245 -4.29793 0
      vertex -2.54518 -4.01056 0
    endloop
  endfacet
endsolid OpenSCAD_Model
